<svg width="163" height="64" viewBox="0 0 163 64" fill="none" xmlns="http://www.w3.org/2000/svg">
<path d="M156.49 0H6.49023C3.17623 0 0.490234 3.55655 0.490234 7.93282V55.5297C0.490234 59.906 3.17623 63.4625 6.49023 63.4625H156.49C159.804 63.4625 162.49 59.906 162.49 55.5297V7.93282C162.49 3.55655 159.804 0 156.49 0Z" fill="white"/>
<path d="M57.3699 19.9712C57.3699 20.9312 57.1299 21.7712 56.5299 22.3712C55.8099 23.0912 54.9699 23.4512 53.8899 23.4512C52.8099 23.4512 51.9699 23.0912 51.2499 22.3712C50.5299 21.6512 50.1699 20.8112 50.1699 19.7312C50.1699 18.6512 50.5299 17.8112 51.2499 17.0912C51.9699 16.3712 52.8099 16.0112 53.8899 16.0112C54.3699 16.0112 54.8499 16.1312 55.3299 16.3712C55.8099 16.6112 56.1699 16.8512 56.4099 17.2112L55.8099 17.8112C55.3299 17.2112 54.7299 16.9712 53.8899 16.9712C53.1699 16.9712 52.4499 17.2112 51.9699 17.8112C51.3699 18.2912 51.1299 19.0112 51.1299 19.8512C51.1299 20.6912 51.3699 21.4112 51.9699 21.8912C52.5699 22.3712 53.1699 22.7312 53.8899 22.7312C54.7299 22.7312 55.3299 22.4912 55.9299 21.8912C56.2899 21.5312 56.5299 21.0512 56.5299 20.4512H53.8899V19.6112H57.3699V19.9712Z" fill="white"/>
<path d="M57.3699 19.9712C57.3699 20.9312 57.1299 21.7712 56.5299 22.3712C55.8099 23.0912 54.9699 23.4512 53.8899 23.4512C52.8099 23.4512 51.9699 23.0912 51.2499 22.3712C50.5299 21.6512 50.1699 20.8112 50.1699 19.7312C50.1699 18.6512 50.5299 17.8112 51.2499 17.0912C51.9699 16.3712 52.8099 16.0112 53.8899 16.0112C54.3699 16.0112 54.8499 16.1312 55.3299 16.3712C55.8099 16.6112 56.1699 16.8512 56.4099 17.2112L55.8099 17.8112C55.3299 17.2112 54.7299 16.9712 53.8899 16.9712C53.1699 16.9712 52.4499 17.2112 51.9699 17.8112C51.3699 18.2912 51.1299 19.0112 51.1299 19.8512C51.1299 20.6912 51.3699 21.4112 51.9699 21.8912C52.5699 22.3712 53.1699 22.7312 53.8899 22.7312C54.7299 22.7312 55.3299 22.4912 55.9299 21.8912C56.2899 21.5312 56.5299 21.0512 56.5299 20.4512H53.8899V19.6112H57.3699V19.9712Z" fill="#252532" stroke="#252532" stroke-width="0.2" stroke-miterlimit="50"/>
<path d="M62.8895 16.9712H59.6495V19.2512H62.6495V20.0912H59.6495V22.3712H62.8895V23.3312H58.6895V16.1312H62.8895V16.9712Z" fill="white"/>
<path d="M62.8895 16.9712H59.6495V19.2512H62.6495V20.0912H59.6495V22.3712H62.8895V23.3312H58.6895V16.1312H62.8895V16.9712Z" fill="#252532" stroke="#252532" stroke-width="0.2" stroke-miterlimit="50"/>
<path d="M66.8496 23.3312H65.8896V16.9712H63.8496V16.1312H68.8896V16.9712H66.8496V23.3312Z" fill="white"/>
<path d="M66.8496 23.3312H65.8896V16.9712H63.8496V16.1312H68.8896V16.9712H66.8496V23.3312Z" fill="#252532" stroke="#252532" stroke-width="0.2" stroke-miterlimit="50"/>
<path d="M72.3711 23.3312V16.1312H73.3311V23.3312H72.3711Z" fill="white"/>
<path d="M72.3711 23.3312V16.1312H73.3311V23.3312H72.3711Z" fill="#252532" stroke="#252532" stroke-width="0.2" stroke-miterlimit="50"/>
<path d="M77.4102 23.3312H76.4502V16.9712H74.4102V16.1312H79.3302V16.9712H77.2902V23.3312H77.4102Z" fill="white"/>
<path d="M77.4102 23.3312H76.4502V16.9712H74.4102V16.1312H79.3302V16.9712H77.2902V23.3312H77.4102Z" fill="#252532" stroke="#252532" stroke-width="0.2" stroke-miterlimit="50"/>
<path d="M83.4092 19.7312C83.4092 18.8912 83.7692 18.1712 84.2492 17.6912C84.7292 17.0912 85.4492 16.8512 86.1692 16.8512C86.8892 16.8512 87.6092 17.2112 88.0892 17.6912C88.6892 18.1712 88.9292 18.8912 88.9292 19.7312C88.9292 20.5712 88.5692 21.2912 88.0892 21.7712C87.6092 22.3712 86.8892 22.6112 86.1692 22.6112C85.4492 22.6112 84.7292 22.2512 84.2492 21.7712C83.6492 21.2912 83.4092 20.5712 83.4092 19.7312ZM89.8892 19.7312C89.8892 18.6512 89.5292 17.8112 88.8092 17.0912C88.0892 16.3712 87.2492 16.0112 86.1692 16.0112C85.0892 16.0112 84.2492 16.3712 83.5292 17.0912C82.8092 17.8112 82.4492 18.6512 82.4492 19.7312C82.4492 20.8112 82.8092 21.6512 83.5292 22.3712C84.2492 23.0912 85.0892 23.4512 86.1692 23.4512C87.2492 23.4512 88.0892 23.0912 88.8092 22.3712C89.5292 21.6512 89.8892 20.8112 89.8892 19.7312Z" fill="white"/>
<path d="M83.4092 19.7312C83.4092 18.8912 83.7692 18.1712 84.2492 17.6912C84.7292 17.0912 85.4492 16.8512 86.1692 16.8512C86.8892 16.8512 87.6092 17.2112 88.0892 17.6912C88.6892 18.1712 88.9292 18.8912 88.9292 19.7312C88.9292 20.5712 88.5692 21.2912 88.0892 21.7712C87.6092 22.3712 86.8892 22.6112 86.1692 22.6112C85.4492 22.6112 84.7292 22.2512 84.2492 21.7712C83.6492 21.2912 83.4092 20.5712 83.4092 19.7312ZM89.8892 19.7312C89.8892 18.6512 89.5292 17.8112 88.8092 17.0912C88.0892 16.3712 87.2492 16.0112 86.1692 16.0112C85.0892 16.0112 84.2492 16.3712 83.5292 17.0912C82.8092 17.8112 82.4492 18.6512 82.4492 19.7312C82.4492 20.8112 82.8092 21.6512 83.5292 22.3712C84.2492 23.0912 85.0892 23.4512 86.1692 23.4512C87.2492 23.4512 88.0892 23.0912 88.8092 22.3712C89.5292 21.6512 89.8892 20.8112 89.8892 19.7312Z" fill="#252532" stroke="#252532" stroke-width="0.2" stroke-miterlimit="50"/>
<path d="M91.2109 23.3312V16.1312H92.2909L95.7709 21.7712V16.1312H96.7309V23.3312H95.7709L92.0509 17.4512V23.3312H91.2109Z" fill="white"/>
<path d="M91.2109 23.3312V16.1312H92.2909L95.7709 21.7712V20.3312V16.1312H96.7309V23.3312H95.7709L92.0509 17.4512V23.3312H91.2109Z" fill="#252532" stroke="#252532" stroke-width="0.2" stroke-miterlimit="50"/>
<path d="M128.771 28.7312H131.051V43.7312H128.771V28.7312ZM151.331 34.1312L145.211 48.2912H142.931L145.211 43.2512L141.251 34.1312H143.651L146.291 40.6112H146.411L148.931 34.1312H151.331ZM138.971 39.6512C138.371 39.4112 137.891 39.1712 136.931 39.1712C135.851 39.1712 134.531 39.5312 134.531 40.7312C134.531 41.6912 135.611 42.0512 136.331 42.0512C137.531 42.0512 138.731 41.0912 138.971 39.6512ZM141.371 37.9712V43.7312H139.211V42.5312H139.091C138.491 43.2512 137.771 43.9712 136.211 43.9712C134.291 43.9712 132.491 42.6512 132.491 40.6112C132.491 38.4512 134.651 37.2512 136.811 37.2512C137.771 37.2512 138.731 37.6112 139.091 37.8512V37.7312C138.971 36.5312 137.891 35.8112 136.691 35.8112C135.851 35.8112 135.131 36.0512 134.651 36.8912L132.611 36.0512C133.211 34.4912 134.891 33.7712 136.571 33.7712C139.091 33.7712 141.131 35.3312 141.371 37.9712ZM125.411 33.2912C125.411 32.2112 124.451 30.7712 122.771 30.7712H119.531V35.9312H122.771C124.331 35.9312 125.291 34.6112 125.411 33.2912ZM127.571 33.4112C127.571 36.2912 125.171 38.0912 122.651 38.0912H119.531V43.7312H117.251V28.7312H122.651C125.171 28.7312 127.571 30.5312 127.571 33.4112ZM96.1305 38.9312C96.1305 37.1312 94.9305 35.8112 93.3705 35.8112C91.8105 35.8112 90.4905 37.1312 90.4905 38.9312C90.4905 40.7312 91.8105 42.0512 93.3705 42.0512C94.9305 42.0512 96.1305 40.7312 96.1305 38.9312ZM96.0105 34.1312H98.1705V43.2512C98.1705 46.9712 96.0105 48.5312 93.3705 48.5312C90.8505 48.5312 89.4105 46.8512 88.8105 45.5312L90.7305 44.6912C90.9705 45.5312 91.9305 46.4912 93.2505 46.4912C94.9305 46.4912 96.0105 45.4112 96.0105 43.4912V42.7712H95.8905C95.4105 43.3712 94.4506 43.9712 93.2505 43.9712C90.6105 43.9712 88.3305 41.8112 88.3305 38.9312C88.3305 36.0512 90.7305 33.7712 93.2505 33.7712C94.4506 33.7712 95.4105 34.3712 96.0105 34.9712V34.1312ZM99.6105 28.7312H101.891V43.7312H99.6105V28.7312ZM109.811 36.8912C109.571 36.2912 108.731 35.8112 107.891 35.8112C106.811 35.8112 105.251 36.8912 105.251 38.8112L109.811 36.8912ZM112.451 37.7312L105.611 40.6112C106.211 41.6912 106.931 42.1712 108.131 42.1712C109.331 42.1712 110.051 41.5712 110.651 40.7312L112.331 41.9312C111.851 42.7712 110.411 44.2112 108.131 44.2112C105.251 44.2112 103.091 41.9312 103.091 39.0512C103.091 35.9312 105.251 33.8912 107.891 33.8912C110.531 33.8912 111.731 35.9312 112.211 37.1312L112.451 37.7312ZM65.1705 35.4512C65.2905 35.8112 65.2906 36.2912 65.2906 36.7712C65.2906 38.3312 64.8105 40.3712 63.3705 41.8112C61.9305 43.3712 60.2505 44.0912 57.8505 44.0912C53.5305 44.0912 49.8105 40.4912 49.8105 36.1712C49.8105 31.8512 53.5305 28.2512 57.8505 28.2512C60.2505 28.2512 61.9305 29.2112 63.2505 30.4112L61.6905 31.9712C60.7305 31.1312 59.4105 30.4112 57.7305 30.4112C54.6105 30.4112 52.0905 32.9312 52.0905 36.1712C52.0905 39.4112 54.4905 41.9312 57.7305 41.9312C59.7705 41.9312 60.9705 41.0912 61.6905 40.3712C62.2905 39.7712 62.7705 38.8112 62.8905 37.6112H57.7305V35.4512H65.1705ZM73.9305 38.9312C73.9305 37.0112 72.6105 35.8112 71.0505 35.8112C69.4905 35.8112 68.1705 37.1312 68.1705 38.9312C68.1705 40.7312 69.4905 42.0512 71.0505 42.0512C72.6105 42.0512 73.9305 40.7312 73.9305 38.9312ZM76.2105 39.0512C76.2105 42.0512 73.9305 44.2112 71.0505 44.2112C68.1705 44.2112 65.8905 41.9312 65.8905 39.0512C65.8905 36.0512 68.1705 33.8912 71.0505 33.8912C73.9305 33.8912 76.2105 35.9312 76.2105 39.0512ZM85.0905 38.9312C85.0905 37.0112 83.7705 35.8112 82.2105 35.8112C80.6505 35.8112 79.3305 37.1312 79.3305 38.9312C79.3305 40.7312 80.6505 42.0512 82.2105 42.0512C83.7705 42.0512 85.0905 40.7312 85.0905 38.9312ZM87.3705 39.0512C87.3705 42.0512 85.0905 44.2112 82.2105 44.2112C79.3305 44.2112 77.0505 41.9312 77.0505 39.0512C77.0505 36.0512 79.3305 33.8912 82.2105 33.8912C85.0905 33.8912 87.3705 35.9312 87.3705 39.0512Z" fill="#252532"/>
<path d="M12.9711 16.7312C12.6111 17.0912 12.3711 17.6912 12.3711 18.4112V44.9312C12.3711 45.6512 12.6111 46.2512 12.9711 46.6112L13.0911 46.7312L27.9711 31.8512V31.6112L12.9711 16.7312Z" fill="url(#paint0_linear_6898_6640)"/>
<path d="M32.8907 36.8912L27.9707 31.9712V31.6112L32.8907 26.6912L33.0107 26.8112L38.8907 30.1712C40.5707 31.1312 40.5707 32.6912 38.8907 33.6512L32.8907 36.8912Z" fill="url(#paint1_linear_6898_6640)"/>
<path d="M33.0107 36.7712L27.9707 31.7312L12.9707 46.7312C13.5707 47.3312 14.4107 47.3312 15.4907 46.8512L33.0107 36.7712Z" fill="url(#paint2_linear_6898_6640)"/>
<path d="M33.0107 26.6953L15.4907 16.7353C14.4107 16.1353 13.5707 16.2553 12.9707 16.8553L27.9707 31.7353L33.0107 26.6953Z" fill="url(#paint3_linear_6898_6640)"/>
<path opacity="0.2" d="M32.8907 36.6512L15.4907 46.4912C14.5307 47.0912 13.6907 46.9712 13.0907 46.4912L12.9707 46.6112L13.0907 46.7312C13.6907 47.2112 14.5307 47.3312 15.4907 46.7312L32.8907 36.6512Z" fill="black"/>
<path opacity="0.12" d="M38.8906 33.2912L32.8906 36.6512L33.0106 36.7712L38.8906 33.4112C39.7306 32.9312 40.0906 32.3312 40.0906 31.7312C40.0906 32.3312 39.6106 32.8112 38.8906 33.2912Z" fill="black"/>
<path opacity="0.25" d="M15.4902 16.8502L38.8902 30.1702C39.6102 30.6502 40.0902 31.1302 40.0902 31.7302C40.0902 31.1302 39.7302 30.5302 38.8902 30.0502L15.4902 16.7302C13.8102 15.7702 12.4902 16.6102 12.4902 18.5302V18.6502C12.4902 16.7302 13.8102 15.8902 15.4902 16.8502Z" fill="white"/>
<defs>
<linearGradient id="paint0_linear_6898_6640" x1="21.9211" y1="18.1812" x2="9.13109" y2="30.9712" gradientUnits="userSpaceOnUse">
<stop stop-color="#00A0FF"/>
<stop offset="0.01" stop-color="#00A1FF"/>
<stop offset="0.26" stop-color="#00BEFF"/>
<stop offset="0.51" stop-color="#00D2FF"/>
<stop offset="0.76" stop-color="#00DFFF"/>
<stop offset="1" stop-color="#00E3FF"/>
</linearGradient>
<linearGradient id="paint1_linear_6898_6640" x1="41.0907" y1="31.7312" x2="12.0607" y2="31.7312" gradientUnits="userSpaceOnUse">
<stop stop-color="#FFE000"/>
<stop offset="0.41" stop-color="#FFBD00"/>
<stop offset="0.78" stop-color="#FFA500"/>
<stop offset="1" stop-color="#FF9C00"/>
</linearGradient>
<linearGradient id="paint2_linear_6898_6640" x1="30.2807" y1="36.5012" x2="8.4907" y2="58.3012" gradientUnits="userSpaceOnUse">
<stop stop-color="#FF3A44"/>
<stop offset="1" stop-color="#C31162"/>
</linearGradient>
<linearGradient id="paint3_linear_6898_6640" x1="9.2507" y1="14.5413" x2="18.9407" y2="24.2313" gradientUnits="userSpaceOnUse">
<stop stop-color="#32A071"/>
<stop offset="0.07" stop-color="#2DA771"/>
<stop offset="0.48" stop-color="#15CF74"/>
<stop offset="0.8" stop-color="#06E775"/>
<stop offset="1" stop-color="#00F076"/>
</linearGradient>
</defs>
</svg>
