<svg width="206" height="64" viewBox="0 0 206 64" fill="none" xmlns="http://www.w3.org/2000/svg">
<path d="M197.471 0.44104H8.15658C3.97398 0.44104 0.583984 3.99759 0.583984 8.37386V55.9708C0.583984 60.3471 3.97398 63.9036 8.15658 63.9036H197.471C201.654 63.9036 205.044 60.3471 205.044 55.9708V8.37386C205.044 3.99759 201.654 0.44104 197.471 0.44104Z" fill="white"/>
<path d="M57.069 18.0524C55.719 18.1124 54.029 18.9824 53.057 20.1224C52.197 21.1324 51.429 22.7824 51.626 24.3324C53.143 24.4524 54.702 23.5724 55.675 22.4224C56.608 21.2524 57.245 19.6624 57.069 18.0524ZM62.039 27.3514C60.426 24.9914 57.925 24.6724 57.047 24.6524C54.947 24.4224 52.911 25.9024 51.84 25.9024C50.75 25.9024 49.102 24.6724 47.328 24.7024C45.044 24.7424 42.905 26.0624 41.733 28.1204C39.313 32.3084 41.119 38.4654 43.435 41.8544C44.595 43.5134 45.949 45.3724 47.723 45.3024C49.458 45.2324 50.105 44.1924 52.199 44.1924C54.274 44.1924 54.882 45.3024 56.689 45.2624C58.551 45.2324 59.725 43.5924 60.844 41.9244C62.183 40.0144 62.721 38.1454 62.743 38.0564C62.699 38.0364 59.127 36.6764 59.092 32.5484C59.06 29.1004 61.908 27.4314 62.04 27.3514H62.039Z" fill="#252532"/>
<path d="M81.0228 41.1123H75.1028L73.6808 45.3123H71.1738L76.7818 29.7623H79.3868L84.9938 45.3123H82.4438L81.0228 41.1123ZM75.7158 39.1723H80.4188L78.0998 32.3523H78.0358L75.7158 39.1723Z" fill="#252532"/>
<path d="M97.1016 39.6524C97.1016 43.1724 95.2176 45.4324 92.3746 45.4324C90.7616 45.4324 89.4806 44.7124 88.8126 43.4524H88.7586V49.0624H86.4336V33.9824H88.6836V35.8624H88.7266C89.3726 34.6524 90.7516 33.8624 92.3326 33.8624C95.2066 33.8624 97.1016 36.1324 97.1016 39.6524ZM94.7126 39.6524C94.7126 37.3524 93.5266 35.8424 91.7196 35.8424C89.9436 35.8424 88.7486 37.3824 88.7486 39.6524C88.7486 41.9324 89.9436 43.4624 91.7196 43.4624C93.5266 43.4624 94.7126 41.9624 94.7126 39.6524Z" fill="#252532"/>
<path d="M109.561 39.6524C109.561 43.1724 107.679 45.4324 104.836 45.4324C103.223 45.4324 101.942 44.7124 101.274 43.4524H101.22V49.0624H98.8945V33.9824H101.145V35.8624H101.188C101.834 34.6524 103.211 33.8624 104.794 33.8624C107.668 33.8624 109.561 36.1324 109.561 39.6524ZM107.182 39.6524C107.182 37.3524 105.996 35.8424 104.186 35.8424C102.407 35.8424 101.21 37.3824 101.21 39.6524C101.21 41.9324 102.407 43.4624 104.186 43.4624C105.996 43.4624 107.182 41.9624 107.182 39.6524Z" fill="#252532"/>
<path d="M117.804 40.9821C117.975 42.5221 119.472 43.5321 121.516 43.5321C123.476 43.5321 124.885 42.5221 124.885 41.1321C124.885 39.9221 124.035 39.2021 122.022 38.7121L120.009 38.2221C117.157 37.5321 115.833 36.2021 115.833 34.0321C115.833 31.3521 118.169 29.5021 121.484 29.5021C124.766 29.5021 127.016 31.3521 127.091 34.0321H124.745C124.605 32.4821 123.323 31.5421 121.452 31.5421C119.578 31.5421 118.298 32.4921 118.298 33.8721C118.298 34.9721 119.116 35.6121 121.118 36.1121L122.829 36.5321C126.016 37.2821 127.34 38.5721 127.34 40.8421C127.34 43.7521 125.025 45.5721 121.344 45.5721C117.9 45.5721 115.574 43.7921 115.424 40.9821H117.804Z" fill="#252532"/>
<path d="M132.354 31.2921V33.9821H134.507V35.8221H132.354V42.0721C132.354 43.0421 132.785 43.4921 133.732 43.4921C133.968 43.4921 134.346 43.4621 134.496 43.4421V45.2721C134.239 45.3421 133.722 45.3821 133.205 45.3821C130.913 45.3821 130.019 44.5221 130.019 42.3221V35.8221H128.373V33.9821H130.019V31.2921H132.354Z" fill="#252532"/>
<path d="M135.754 39.6524C135.754 36.0824 137.852 33.8424 141.124 33.8424C144.407 33.8424 146.496 36.0824 146.496 39.6524C146.496 43.2224 144.418 45.4524 141.124 45.4524C137.831 45.4524 135.754 43.2224 135.754 39.6524ZM144.127 39.6524C144.127 37.2024 143.008 35.7524 141.124 35.7524C139.241 35.7524 138.122 37.2124 138.122 39.6524C138.122 42.1024 139.241 43.5324 141.124 43.5324C143.008 43.5324 144.127 42.1024 144.127 39.6524Z" fill="#252532"/>
<path d="M148.414 33.9824H150.631V35.9124H150.685C151.04 34.6224 152.073 33.8624 153.408 33.8624C153.742 33.8624 154.021 33.9024 154.205 33.9424V36.1224C154.021 36.0524 153.612 35.9824 153.16 35.9824C151.664 35.9824 150.739 36.9924 150.739 38.5924V45.3124H148.414V33.9824Z" fill="#252532"/>
<path d="M164.917 41.9824C164.605 44.0424 162.603 45.4524 160.042 45.4524C156.748 45.4524 154.703 43.2424 154.703 39.7024C154.703 36.1424 156.759 33.8424 159.944 33.8424C163.077 33.8424 165.047 35.9924 165.047 39.4324V40.2324H157.049V40.3724C157.049 42.3124 158.266 43.5824 160.096 43.5824C161.387 43.5824 162.4 42.9624 162.711 41.9824H164.917ZM157.06 38.6024H162.721C162.667 36.8624 161.559 35.7224 159.944 35.7224C158.341 35.7224 157.179 36.8924 157.06 38.6024Z" fill="#252532"/>
<path d="M75.4187 18.0626C77.6317 18.0626 78.9307 19.4226 78.9307 21.7726C78.9307 24.1626 77.6417 25.5326 75.4187 25.5326H72.7227V18.0626H75.4187ZM73.8827 24.4726H75.2897C76.8507 24.4726 77.7497 23.5026 77.7497 21.7926C77.7497 20.1026 76.8357 19.1126 75.2897 19.1126H73.8827V24.4726Z" fill="#252532"/>
<path d="M80.2441 22.7123C80.2441 20.8923 81.2571 19.7823 82.9021 19.7823C84.5411 19.7823 85.5561 20.8923 85.5561 22.7123C85.5561 24.5423 84.5461 25.6423 82.9021 25.6423C81.2521 25.6423 80.2441 24.5423 80.2441 22.7123ZM84.4121 22.7123C84.4121 21.4923 83.8631 20.7723 82.9021 20.7723C81.9351 20.7723 81.3921 21.4923 81.3921 22.7123C81.3921 23.9423 81.9351 24.6523 82.9021 24.6523C83.8631 24.6523 84.4121 23.9423 84.4121 22.7123Z" fill="#252532"/>
<path d="M92.6125 25.5322H91.4595L90.2955 21.3822H90.2075L89.0485 25.5322H87.9075L86.3535 19.8922H87.4815L88.4895 24.1922H88.5735L89.7315 19.8922H90.7975L91.9555 24.1922H92.0435L93.0475 19.8922H94.1595L92.6125 25.5322Z" fill="#252532"/>
<path d="M95.4629 19.8923H96.5329V20.7923H96.6149C96.8889 20.1623 97.4479 19.7823 98.2959 19.7823C99.5529 19.7823 100.246 20.5423 100.246 21.8823V25.5323H99.1339V22.1623C99.1339 21.2523 98.7419 20.8023 97.9189 20.8023C97.0969 20.8023 96.5739 21.3523 96.5739 22.2323V25.5323H95.4629V19.8923Z" fill="#252532"/>
<path d="M102.023 25.5325H103.135V17.6925H102.023V25.5325Z" fill="#252532"/>
<path d="M104.674 22.7123C104.674 20.8923 105.688 19.7823 107.332 19.7823C108.972 19.7823 109.986 20.8923 109.986 22.7123C109.986 24.5423 108.977 25.6423 107.332 25.6423C105.683 25.6423 104.674 24.5423 104.674 22.7123ZM108.841 22.7123C108.841 21.4923 108.293 20.7723 107.332 20.7723C106.366 20.7723 105.825 21.4923 105.825 22.7123C105.825 23.9423 106.366 24.6523 107.332 24.6523C108.292 24.6523 108.841 23.9423 108.841 22.7123Z" fill="#252532"/>
<path d="M111.164 23.9423C111.164 22.9223 111.918 22.3423 113.259 22.2523L114.783 22.1623V21.6823C114.783 21.0823 114.391 20.7523 113.631 20.7523C113.011 20.7523 112.581 20.9723 112.457 21.3723H111.381C111.495 20.4023 112.405 19.7823 113.683 19.7823C115.095 19.7823 115.89 20.4923 115.89 21.6823V25.5323H114.821V24.7423H114.732C114.397 25.3023 113.782 25.6223 113.041 25.6223C111.956 25.6223 111.164 24.9723 111.164 23.9423ZM114.785 23.4523V22.9823L113.409 23.0723C112.631 23.1223 112.279 23.3923 112.279 23.8823C112.279 24.3923 112.719 24.6923 113.325 24.6923C114.165 24.6923 114.785 24.1523 114.785 23.4523Z" fill="#252532"/>
<path d="M117.344 22.7125C117.344 20.9325 118.26 19.8025 119.682 19.8025C120.454 19.8025 121.104 20.1725 121.409 20.7925H121.493V17.6925H122.604V25.5325H121.539V24.6425H121.45C121.115 25.2625 120.457 25.6225 119.682 25.6225C118.25 25.6225 117.344 24.5025 117.344 22.7125ZM118.493 22.7125C118.493 23.9025 119.055 24.6225 119.997 24.6225C120.934 24.6225 121.513 23.8925 121.513 22.7125C121.513 21.5425 120.928 20.8025 119.997 20.8025C119.062 20.8025 118.493 21.5225 118.493 22.7125Z" fill="#252532"/>
<path d="M127.203 22.7123C127.203 20.8923 128.217 19.7823 129.861 19.7823C131.5 19.7823 132.515 20.8923 132.515 22.7123C132.515 24.5423 131.505 25.6423 129.861 25.6423C128.212 25.6423 127.203 24.5423 127.203 22.7123ZM131.371 22.7123C131.371 21.4923 130.822 20.7723 129.861 20.7723C128.894 20.7723 128.351 21.4923 128.351 22.7123C128.351 23.9423 128.894 24.6523 129.861 24.6523C130.822 24.6523 131.371 23.9423 131.371 22.7123Z" fill="#252532"/>
<path d="M134.004 19.8923H135.074V20.7923H135.156C135.43 20.1623 135.989 19.7823 136.837 19.7823C138.094 19.7823 138.787 20.5423 138.787 21.8823V25.5323H137.675V22.1623C137.675 21.2523 137.283 20.8023 136.46 20.8023C135.638 20.8023 135.115 21.3523 135.115 22.2323V25.5323H134.004V19.8923Z" fill="#252532"/>
<path d="M145.07 18.4923V19.9223H146.291V20.8623H145.07V23.7523C145.07 24.3523 145.314 24.6023 145.867 24.6023C146.038 24.6023 146.136 24.5923 146.291 24.5823V25.5023C146.11 25.5423 145.902 25.5623 145.686 25.5623C144.45 25.5623 143.958 25.1323 143.958 24.0423V20.8623H143.064V19.9223H143.958V18.4923H145.07Z" fill="#252532"/>
<path d="M147.814 17.6925H148.916V20.8025H149.004C149.276 20.1725 149.872 19.7925 150.721 19.7925C151.92 19.7925 152.661 20.5525 152.661 21.8925V25.5325H151.548V22.1725C151.548 21.2625 151.129 20.8125 150.343 20.8125C149.433 20.8125 148.925 21.3825 148.925 22.2425V25.5325H147.814V17.6925Z" fill="#252532"/>
<path d="M159.136 24.0123C158.883 25.0223 157.983 25.6423 156.696 25.6423C155.082 25.6423 154.094 24.5323 154.094 22.7323C154.094 20.9323 155.104 19.7823 156.691 19.7823C158.258 19.7823 159.204 20.8623 159.204 22.6323V23.0123H155.226V23.0823C155.264 24.0623 155.838 24.6923 156.726 24.6923C157.4 24.6923 157.86 24.4523 158.067 24.0123H159.136ZM155.226 22.1923H158.072C158.045 21.3123 157.508 20.7323 156.685 20.7323C155.863 20.7323 155.289 21.3123 155.226 22.1923Z" fill="#252532"/>
</svg>
