<svg width="205" height="64" viewBox="0 0 205 64" fill="none" xmlns="http://www.w3.org/2000/svg">
<path d="M196.887 0H7.57259C3.39 0 0 3.55655 0 7.93282V55.5298C0 59.906 3.39 63.4626 7.57259 63.4626H196.887C201.07 63.4626 204.46 59.906 204.46 55.5298V7.93282C204.46 3.55655 201.07 0 196.887 0Z" fill="white"/>
<path d="M56.485 17.6113C55.135 17.6713 53.445 18.5413 52.473 19.6813C51.613 20.6913 50.845 22.3413 51.042 23.8913C52.559 24.0113 54.118 23.1313 55.091 21.9813C56.024 20.8113 56.661 19.2213 56.485 17.6113V17.6113ZM61.455 26.9103C59.842 24.5503 57.341 24.2313 56.463 24.2113C54.363 23.9813 52.327 25.4613 51.256 25.4613C50.166 25.4613 48.518 24.2313 46.744 24.2613C44.46 24.3013 42.321 25.6213 41.149 27.6793C38.729 31.8673 40.535 38.0243 42.851 41.4133C44.011 43.0723 45.365 44.9313 47.139 44.8613C48.874 44.7913 49.521 43.7513 51.615 43.7513C53.69 43.7513 54.298 44.8613 56.105 44.8213C57.967 44.7913 59.141 43.1513 60.26 41.4833C61.599 39.5733 62.137 37.7043 62.159 37.6153C62.115 37.5953 58.543 36.2353 58.508 32.1073C58.476 28.6593 61.324 26.9903 61.456 26.9103H61.455Z" fill="#252532"/>
<path d="M80.4388 40.6713H74.5188L73.0968 44.8713H70.5898L76.1978 29.3213H78.8028L84.4098 44.8713H81.8598L80.4388 40.6713ZM75.1318 38.7313H79.8348L77.5158 31.9113H77.4518L75.1318 38.7313Z" fill="#252532"/>
<path d="M96.5176 39.2114C96.5176 42.7314 94.6336 44.9914 91.7906 44.9914C90.1776 44.9914 88.8966 44.2714 88.2286 43.0114H88.1746V48.6214H85.8496V33.5414H88.0996V35.4214H88.1426C88.7886 34.2114 90.1676 33.4214 91.7486 33.4214C94.6226 33.4214 96.5176 35.6914 96.5176 39.2114V39.2114ZM94.1286 39.2114C94.1286 36.9114 92.9426 35.4014 91.1356 35.4014C89.3596 35.4014 88.1646 36.9414 88.1646 39.2114C88.1646 41.4914 89.3596 43.0214 91.1356 43.0214C92.9426 43.0214 94.1286 41.5214 94.1286 39.2114Z" fill="#252532"/>
<path d="M108.977 39.2114C108.977 42.7314 107.095 44.9914 104.252 44.9914C102.639 44.9914 101.358 44.2714 100.69 43.0114H100.636V48.6214H98.3105V33.5414H100.561V35.4214H100.604C101.25 34.2114 102.627 33.4214 104.21 33.4214C107.084 33.4214 108.977 35.6914 108.977 39.2114V39.2114ZM106.598 39.2114C106.598 36.9114 105.412 35.4014 103.602 35.4014C101.823 35.4014 100.626 36.9414 100.626 39.2114C100.626 41.4914 101.823 43.0214 103.602 43.0214C105.412 43.0214 106.598 41.5214 106.598 39.2114Z" fill="#252532"/>
<path d="M117.22 40.541C117.391 42.081 118.888 43.091 120.932 43.091C122.892 43.091 124.301 42.081 124.301 40.691C124.301 39.481 123.451 38.761 121.438 38.271L119.425 37.781C116.573 37.091 115.249 35.761 115.249 33.591C115.249 30.911 117.585 29.061 120.9 29.061C124.182 29.061 126.432 30.911 126.507 33.591H124.161C124.021 32.041 122.739 31.101 120.868 31.101C118.994 31.101 117.714 32.051 117.714 33.431C117.714 34.531 118.532 35.171 120.534 35.671L122.245 36.091C125.432 36.841 126.756 38.131 126.756 40.401C126.756 43.311 124.441 45.131 120.76 45.131C117.316 45.131 114.99 43.351 114.84 40.541H117.22Z" fill="#252532"/>
<path d="M131.77 30.8511V33.5411H133.923V35.3811H131.77V41.6311C131.77 42.6011 132.201 43.0511 133.148 43.0511C133.384 43.0511 133.762 43.0211 133.912 43.0011V44.8311C133.655 44.9011 133.138 44.9411 132.621 44.9411C130.329 44.9411 129.435 44.0811 129.435 41.8811V35.3811H127.789V33.5411H129.435V30.8511H131.77Z" fill="#252532"/>
<path d="M135.17 39.2114C135.17 35.6414 137.268 33.4014 140.54 33.4014C143.823 33.4014 145.912 35.6414 145.912 39.2114C145.912 42.7814 143.834 45.0114 140.54 45.0114C137.247 45.0114 135.17 42.7814 135.17 39.2114ZM143.543 39.2114C143.543 36.7614 142.424 35.3114 140.54 35.3114C138.657 35.3114 137.538 36.7714 137.538 39.2114C137.538 41.6614 138.657 43.0914 140.54 43.0914C142.424 43.0914 143.543 41.6614 143.543 39.2114Z" fill="#252532"/>
<path d="M147.83 33.5414H150.047V35.4714H150.101C150.456 34.1814 151.489 33.4214 152.824 33.4214C153.158 33.4214 153.437 33.4614 153.621 33.5014V35.6814C153.437 35.6114 153.028 35.5414 152.576 35.5414C151.08 35.5414 150.155 36.5514 150.155 38.1514V44.8714H147.83V33.5414Z" fill="#252532"/>
<path d="M164.333 41.5414C164.021 43.6014 162.019 45.0114 159.458 45.0114C156.164 45.0114 154.119 42.8014 154.119 39.2614C154.119 35.7014 156.175 33.4014 159.36 33.4014C162.493 33.4014 164.463 35.5514 164.463 38.9914V39.7914H156.465V39.9314C156.465 41.8714 157.682 43.1414 159.512 43.1414C160.803 43.1414 161.816 42.5214 162.127 41.5414H164.333ZM156.476 38.1614H162.137C162.083 36.4214 160.975 35.2814 159.36 35.2814C157.757 35.2814 156.595 36.4514 156.476 38.1614V38.1614Z" fill="#252532"/>
<path d="M74.8347 17.6216C77.0477 17.6216 78.3467 18.9816 78.3467 21.3316C78.3467 23.7216 77.0577 25.0916 74.8347 25.0916H72.1387V17.6216H74.8347ZM73.2987 24.0316H74.7057C76.2667 24.0316 77.1657 23.0616 77.1657 21.3516C77.1657 19.6616 76.2517 18.6716 74.7057 18.6716H73.2987V24.0316Z" fill="#252532"/>
<path d="M79.6602 22.2713C79.6602 20.4513 80.6732 19.3413 82.3182 19.3413C83.9572 19.3413 84.9722 20.4513 84.9722 22.2713C84.9722 24.1013 83.9622 25.2013 82.3182 25.2013C80.6682 25.2013 79.6602 24.1013 79.6602 22.2713ZM83.8282 22.2713C83.8282 21.0513 83.2792 20.3313 82.3182 20.3313C81.3512 20.3313 80.8082 21.0513 80.8082 22.2713C80.8082 23.5013 81.3512 24.2113 82.3182 24.2113C83.2792 24.2113 83.8282 23.5013 83.8282 22.2713V22.2713Z" fill="#252532"/>
<path d="M92.0285 25.0912H90.8755L89.7115 20.9412H89.6235L88.4645 25.0912H87.3235L85.7695 19.4512H86.8975L87.9055 23.7512H87.9895L89.1475 19.4512H90.2135L91.3715 23.7512H91.4595L92.4635 19.4512H93.5755L92.0285 25.0912Z" fill="#252532"/>
<path d="M94.8789 19.4513H95.9489V20.3513H96.0309C96.3049 19.7213 96.8639 19.3413 97.7119 19.3413C98.9689 19.3413 99.6619 20.1013 99.6619 21.4413V25.0913H98.5499V21.7213C98.5499 20.8113 98.1579 20.3613 97.3349 20.3613C96.5129 20.3613 95.9899 20.9113 95.9899 21.7913V25.0913H94.8789V19.4513Z" fill="#252532"/>
<path d="M101.439 25.0915H102.551V17.2515H101.439V25.0915Z" fill="#252532"/>
<path d="M104.09 22.2713C104.09 20.4513 105.104 19.3413 106.748 19.3413C108.388 19.3413 109.402 20.4513 109.402 22.2713C109.402 24.1013 108.393 25.2013 106.748 25.2013C105.099 25.2013 104.09 24.1013 104.09 22.2713ZM108.257 22.2713C108.257 21.0513 107.709 20.3313 106.748 20.3313C105.782 20.3313 105.241 21.0513 105.241 22.2713C105.241 23.5013 105.782 24.2113 106.748 24.2113C107.708 24.2113 108.257 23.5013 108.257 22.2713V22.2713Z" fill="#252532"/>
<path d="M110.58 23.5013C110.58 22.4813 111.334 21.9013 112.675 21.8113L114.199 21.7213V21.2413C114.199 20.6413 113.807 20.3113 113.047 20.3113C112.427 20.3113 111.997 20.5313 111.873 20.9313H110.797C110.911 19.9613 111.821 19.3413 113.099 19.3413C114.511 19.3413 115.306 20.0513 115.306 21.2413V25.0913H114.237V24.3013H114.148C113.813 24.8613 113.198 25.1813 112.457 25.1813C111.372 25.1813 110.58 24.5313 110.58 23.5013ZM114.201 23.0113V22.5413L112.825 22.6313C112.047 22.6813 111.695 22.9513 111.695 23.4413C111.695 23.9513 112.135 24.2513 112.741 24.2513C113.581 24.2513 114.201 23.7113 114.201 23.0113Z" fill="#252532"/>
<path d="M116.76 22.2715C116.76 20.4915 117.676 19.3615 119.098 19.3615C119.87 19.3615 120.52 19.7315 120.825 20.3515H120.909V17.2515H122.02V25.0915H120.955V24.2015H120.866C120.531 24.8215 119.873 25.1815 119.098 25.1815C117.666 25.1815 116.76 24.0615 116.76 22.2715V22.2715ZM117.909 22.2715C117.909 23.4615 118.471 24.1815 119.413 24.1815C120.35 24.1815 120.929 23.4515 120.929 22.2715C120.929 21.1015 120.344 20.3615 119.413 20.3615C118.478 20.3615 117.909 21.0815 117.909 22.2715Z" fill="#252532"/>
<path d="M126.619 22.2713C126.619 20.4513 127.633 19.3413 129.277 19.3413C130.916 19.3413 131.931 20.4513 131.931 22.2713C131.931 24.1013 130.921 25.2013 129.277 25.2013C127.628 25.2013 126.619 24.1013 126.619 22.2713ZM130.787 22.2713C130.787 21.0513 130.238 20.3313 129.277 20.3313C128.31 20.3313 127.767 21.0513 127.767 22.2713C127.767 23.5013 128.31 24.2113 129.277 24.2113C130.238 24.2113 130.787 23.5013 130.787 22.2713V22.2713Z" fill="#252532"/>
<path d="M133.42 19.4513H134.49V20.3513H134.572C134.846 19.7213 135.405 19.3413 136.253 19.3413C137.51 19.3413 138.203 20.1013 138.203 21.4413V25.0913H137.091V21.7213C137.091 20.8113 136.699 20.3613 135.876 20.3613C135.054 20.3613 134.531 20.9113 134.531 21.7913V25.0913H133.42V19.4513Z" fill="#252532"/>
<path d="M144.486 18.0513V19.4813H145.707V20.4213H144.486V23.3113C144.486 23.9113 144.73 24.1613 145.283 24.1613C145.454 24.1613 145.552 24.1513 145.707 24.1413V25.0613C145.526 25.1013 145.318 25.1213 145.102 25.1213C143.866 25.1213 143.374 24.6913 143.374 23.6013V20.4213H142.48V19.4813H143.374V18.0513H144.486Z" fill="#252532"/>
<path d="M147.23 17.2515H148.332V20.3615H148.42C148.692 19.7315 149.288 19.3515 150.137 19.3515C151.336 19.3515 152.077 20.1115 152.077 21.4515V25.0915H150.964V21.7315C150.964 20.8215 150.545 20.3715 149.759 20.3715C148.849 20.3715 148.341 20.9415 148.341 21.8015V25.0915H147.23V17.2515Z" fill="#252532"/>
<path d="M158.552 23.5713C158.299 24.5813 157.399 25.2013 156.112 25.2013C154.498 25.2013 153.51 24.0913 153.51 22.2913C153.51 20.4913 154.52 19.3413 156.107 19.3413C157.674 19.3413 158.62 20.4213 158.62 22.1913V22.5713H154.642V22.6413C154.68 23.6213 155.254 24.2513 156.142 24.2513C156.816 24.2513 157.276 24.0113 157.483 23.5713H158.552ZM154.642 21.7513H157.488C157.461 20.8713 156.924 20.2913 156.101 20.2913C155.279 20.2913 154.705 20.8713 154.642 21.7513Z" fill="#252532"/>
</svg>
