<svg width="205" height="64" viewBox="0 0 205 64" fill="none" xmlns="http://www.w3.org/2000/svg">
<path d="M196.887 0H7.57259C3.39 0 0 3.55655 0 7.93282V55.5297C0 59.906 3.39 63.4625 7.57259 63.4625H196.887C201.07 63.4625 204.46 59.906 204.46 55.5297V7.93282C204.46 3.55655 201.07 0 196.887 0Z" fill="white"/>
<path d="M56.8797 19.9712C56.8797 20.9312 56.6397 21.7712 56.0397 22.3712C55.3197 23.0912 54.4797 23.4512 53.3997 23.4512C52.3197 23.4512 51.4797 23.0912 50.7597 22.3712C50.0397 21.6512 49.6797 20.8112 49.6797 19.7312C49.6797 18.6512 50.0397 17.8112 50.7597 17.0912C51.4797 16.3712 52.3197 16.0112 53.3997 16.0112C53.8797 16.0112 54.3597 16.1312 54.8397 16.3712C55.3197 16.6112 55.6797 16.8512 55.9197 17.2112L55.3197 17.8112C54.8397 17.2112 54.2397 16.9712 53.3997 16.9712C52.6797 16.9712 51.9597 17.2112 51.4797 17.8112C50.8797 18.2912 50.6397 19.0112 50.6397 19.8512C50.6397 20.6912 50.8797 21.4112 51.4797 21.8912C52.0797 22.3712 52.6797 22.7312 53.3997 22.7312C54.2397 22.7312 54.8397 22.4912 55.4397 21.8912C55.7997 21.5312 56.0397 21.0512 56.0397 20.4512H53.3997V19.6112H56.8797V19.9712V19.9712Z" fill="white"/>
<path d="M62.3992 16.9713H59.1592V19.2513H62.1592V20.0913H59.1592V22.3713H62.3992V23.3313H58.1992V16.1313H62.3992V16.9713Z" fill="white"/>
<path d="M66.3594 23.3313H65.3994V16.9713H63.3594V16.1313H68.3994V16.9713H66.3594V23.3313Z" fill="white"/>
<path d="M71.8789 23.3313V16.1313H72.8389V23.3313H71.8789Z" fill="white"/>
<path d="M76.9199 23.3313H75.9599V16.9713H73.9199V16.1313H78.8399V16.9713H76.7999V23.3313H76.9199Z" fill="white"/>
<path d="M82.9209 19.7312C82.9209 18.8912 83.2809 18.1712 83.7609 17.6912C84.2409 17.0912 84.9609 16.8512 85.6809 16.8512C86.4009 16.8512 87.1209 17.2112 87.6009 17.6912C88.2009 18.1712 88.4409 18.8912 88.4409 19.7312C88.4409 20.5712 88.0809 21.2912 87.6009 21.7712C87.1209 22.3712 86.4009 22.6112 85.6809 22.6112C84.9609 22.6112 84.2409 22.2512 83.7609 21.7712C83.1609 21.2912 82.9209 20.5712 82.9209 19.7312ZM89.4009 19.7312C89.4009 18.6512 89.0409 17.8112 88.3209 17.0912C87.6009 16.3712 86.7609 16.0112 85.6809 16.0112C84.6009 16.0112 83.7609 16.3712 83.0409 17.0912C82.3209 17.8112 81.9609 18.6512 81.9609 19.7312C81.9609 20.8112 82.3209 21.6512 83.0409 22.3712C83.7609 23.0912 84.6009 23.4512 85.6809 23.4512C86.7609 23.4512 87.6009 23.0912 88.3209 22.3712C89.0409 21.6512 89.4009 20.8112 89.4009 19.7312Z" fill="white"/>
<path d="M90.7207 23.3313V16.1313H91.8007L95.2807 21.7713V16.1313H96.2407V23.3313H95.2807L91.5607 17.4513V23.3313H90.7207Z" fill="white"/>
<path d="M77.7508 19.9712C77.7508 20.9312 77.5108 21.7712 76.9108 22.3712C76.1908 23.0912 75.3508 23.4512 74.2708 23.4512C73.1908 23.4512 72.3508 23.0912 71.6308 22.3712C70.9108 21.6512 70.5508 20.8112 70.5508 19.7312C70.5508 18.6512 70.9108 17.8112 71.6308 17.0912C72.3508 16.3712 73.1908 16.0112 74.2708 16.0112C74.7508 16.0112 75.2308 16.1312 75.7108 16.3712C76.1908 16.6112 76.5508 16.8512 76.7908 17.2112L76.1908 17.8112C75.7108 17.2112 75.1108 16.9712 74.2708 16.9712C73.5508 16.9712 72.8308 17.2112 72.3508 17.8112C71.7508 18.2912 71.5108 19.0112 71.5108 19.8512C71.5108 20.6912 71.7508 21.4112 72.3508 21.8912C72.9508 22.3712 73.5508 22.7312 74.2708 22.7312C75.1108 22.7312 75.7108 22.4912 76.3108 21.8912C76.6708 21.5312 76.9108 21.0512 76.9108 20.4512H74.2708V19.6112H77.7508V19.9712V19.9712Z" fill="#252532" stroke="#252532" stroke-width="0.2" stroke-miterlimit="50"/>
<path d="M83.2703 16.9713H80.0303V19.2513H83.0303V20.0913H80.0303V22.3713H83.2703V23.3313H79.0703V16.1313H83.2703V16.9713Z" fill="#252532" stroke="#252532" stroke-width="0.2" stroke-miterlimit="50"/>
<path d="M87.2305 23.3313H86.2705V16.9713H84.2305V16.1313H89.2705V16.9713H87.2305V23.3313Z" fill="#252532" stroke="#252532" stroke-width="0.2" stroke-miterlimit="50"/>
<path d="M92.75 23.3313V16.1313H93.71V23.3313H92.75Z" fill="#252532" stroke="#252532" stroke-width="0.2" stroke-miterlimit="50"/>
<path d="M97.791 23.3313H96.831V16.9713H94.791V16.1313H99.711V16.9713H97.671V23.3313H97.791Z" fill="#252532" stroke="#252532" stroke-width="0.2" stroke-miterlimit="50"/>
<path d="M103.792 19.7312C103.792 18.8912 104.152 18.1712 104.632 17.6912C105.112 17.0912 105.832 16.8512 106.552 16.8512C107.272 16.8512 107.992 17.2112 108.472 17.6912C109.072 18.1712 109.312 18.8912 109.312 19.7312C109.312 20.5712 108.952 21.2912 108.472 21.7712C107.992 22.3712 107.272 22.6112 106.552 22.6112C105.832 22.6112 105.112 22.2512 104.632 21.7712C104.032 21.2912 103.792 20.5712 103.792 19.7312ZM110.272 19.7312C110.272 18.6512 109.912 17.8112 109.192 17.0912C108.472 16.3712 107.632 16.0112 106.552 16.0112C105.472 16.0112 104.632 16.3712 103.912 17.0912C103.192 17.8112 102.832 18.6512 102.832 19.7312C102.832 20.8112 103.192 21.6512 103.912 22.3712C104.632 23.0912 105.472 23.4512 106.552 23.4512C107.632 23.4512 108.472 23.0912 109.192 22.3712C109.912 21.6512 110.272 20.8112 110.272 19.7312Z" fill="#252532" stroke="#252532" stroke-width="0.2" stroke-miterlimit="50"/>
<path d="M111.592 23.3313V16.1313H112.672L116.152 21.7713V20.3313V16.1313H117.112V23.3313H116.152L112.432 17.4513V23.3313H111.592Z" fill="#252532" stroke="#252532" stroke-width="0.2" stroke-miterlimit="50"/>
<path d="M149.151 28.7315H151.431V43.7315H149.151V28.7315ZM171.711 34.1315L165.591 48.2915H163.311L165.591 43.2515L161.631 34.1315H164.031L166.671 40.6115H166.791L169.311 34.1315H171.711ZM159.351 39.6515C158.751 39.4115 158.271 39.1715 157.311 39.1715C156.231 39.1715 154.911 39.5315 154.911 40.7315C154.911 41.6915 155.991 42.0515 156.711 42.0515C157.911 42.0515 159.111 41.0915 159.351 39.6515V39.6515ZM161.751 37.9715V43.7315H159.591V42.5315H159.471C158.871 43.2515 158.151 43.9715 156.591 43.9715C154.671 43.9715 152.871 42.6515 152.871 40.6115C152.871 38.4515 155.031 37.2515 157.191 37.2515C158.151 37.2515 159.111 37.6115 159.471 37.8515V37.7315C159.351 36.5315 158.271 35.8115 157.071 35.8115C156.231 35.8115 155.511 36.0515 155.031 36.8915L152.991 36.0515C153.591 34.4915 155.271 33.7715 156.951 33.7715C159.471 33.7715 161.511 35.3315 161.751 37.9715V37.9715ZM145.791 33.2915C145.791 32.2115 144.831 30.7715 143.151 30.7715H139.911V35.9315H143.151C144.711 35.9315 145.671 34.6115 145.791 33.2915ZM147.951 33.4115C147.951 36.2915 145.551 38.0915 143.031 38.0915H139.911V43.7315H137.631V28.7315H143.031C145.551 28.7315 147.951 30.5315 147.951 33.4115ZM116.511 38.9315C116.511 37.1315 115.311 35.8115 113.751 35.8115C112.191 35.8115 110.871 37.1315 110.871 38.9315C110.871 40.7315 112.191 42.0515 113.751 42.0515C115.311 42.0515 116.511 40.7315 116.511 38.9315ZM116.391 34.1315H118.551V43.2515C118.551 46.9715 116.391 48.5315 113.751 48.5315C111.231 48.5315 109.791 46.8515 109.191 45.5315L111.111 44.6915C111.351 45.5315 112.311 46.4915 113.631 46.4915C115.311 46.4915 116.391 45.4115 116.391 43.4915V42.7715H116.271C115.791 43.3715 114.831 43.9715 113.631 43.9715C110.991 43.9715 108.711 41.8115 108.711 38.9315C108.711 36.0515 111.111 33.7715 113.631 33.7715C114.831 33.7715 115.791 34.3715 116.391 34.9715V34.1315ZM119.991 28.7315H122.271V43.7315H119.991V28.7315ZM130.191 36.8915C129.951 36.2915 129.111 35.8115 128.271 35.8115C127.191 35.8115 125.631 36.8915 125.631 38.8115L130.191 36.8915ZM132.831 37.7315L125.991 40.6115C126.591 41.6915 127.311 42.1715 128.511 42.1715C129.711 42.1715 130.431 41.5715 131.031 40.7315L132.711 41.9315C132.231 42.7715 130.791 44.2115 128.511 44.2115C125.631 44.2115 123.471 41.9315 123.471 39.0515C123.471 35.9315 125.631 33.8915 128.271 33.8915C130.911 33.8915 132.111 35.9315 132.591 37.1315L132.831 37.7315ZM85.5514 35.4515C85.6714 35.8115 85.6714 36.2915 85.6714 36.7715C85.6714 38.3315 85.1914 40.3715 83.7514 41.8115C82.3114 43.3715 80.6314 44.0915 78.2314 44.0915C73.9114 44.0915 70.1914 40.4915 70.1914 36.1715C70.1914 31.8515 73.9114 28.2515 78.2314 28.2515C80.6314 28.2515 82.3114 29.2115 83.6314 30.4115L82.0714 31.9715C81.1114 31.1315 79.7914 30.4115 78.1114 30.4115C74.9914 30.4115 72.4714 32.9315 72.4714 36.1715C72.4714 39.4115 74.8714 41.9315 78.1114 41.9315C80.1514 41.9315 81.3514 41.0915 82.0714 40.3715C82.6714 39.7715 83.1514 38.8115 83.2714 37.6115H78.1114V35.4515H85.5514ZM94.3114 38.9315C94.3114 37.0115 92.9914 35.8115 91.4314 35.8115C89.8714 35.8115 88.5514 37.1315 88.5514 38.9315C88.5514 40.7315 89.8714 42.0515 91.4314 42.0515C92.9914 42.0515 94.3114 40.7315 94.3114 38.9315ZM96.5914 39.0515C96.5914 42.0515 94.3114 44.2115 91.4314 44.2115C88.5514 44.2115 86.2714 41.9315 86.2714 39.0515C86.2714 36.0515 88.5514 33.8915 91.4314 33.8915C94.3114 33.8915 96.5914 35.9315 96.5914 39.0515V39.0515ZM105.471 38.9315C105.471 37.0115 104.151 35.8115 102.591 35.8115C101.031 35.8115 99.7114 37.1315 99.7114 38.9315C99.7114 40.7315 101.031 42.0515 102.591 42.0515C104.151 42.0515 105.471 40.7315 105.471 38.9315ZM107.751 39.0515C107.751 42.0515 105.471 44.2115 102.591 44.2115C99.7114 44.2115 97.4314 41.9315 97.4314 39.0515C97.4314 36.0515 99.7114 33.8915 102.591 33.8915C105.471 33.8915 107.751 35.9315 107.751 39.0515V39.0515Z" fill="#252532"/>
<path d="M33.35 16.7314C32.99 17.0914 32.75 17.6914 32.75 18.4114V44.9314C32.75 45.6514 32.99 46.2514 33.35 46.6114L33.47 46.7314L48.35 31.8514V31.6114L33.35 16.7314Z" fill="url(#paint0_linear_7402_6717)"/>
<path d="M53.2716 36.8914L48.3516 31.9714V31.6114L53.2716 26.6914L53.3916 26.8114L59.2716 30.1714C60.9516 31.1314 60.9516 32.6914 59.2716 33.6514L53.2716 36.8914Z" fill="url(#paint1_linear_7402_6717)"/>
<path d="M53.3916 36.7714L48.3516 31.7314L33.3516 46.7314C33.9516 47.3314 34.7916 47.3314 35.8716 46.8514L53.3916 36.7714Z" fill="url(#paint2_linear_7402_6717)"/>
<path d="M53.3916 26.6953L35.8716 16.7353C34.7916 16.1353 33.9516 16.2553 33.3516 16.8553L48.3516 31.7353L53.3916 26.6953Z" fill="url(#paint3_linear_7402_6717)"/>
<path opacity="0.25" d="M15 16.8504L38.4 30.1704C39.12 30.6504 39.6 31.1304 39.6 31.7304C39.6 31.1304 39.24 30.5304 38.4 30.0504L15 16.7304C13.32 15.7704 12 16.6104 12 18.5304V18.6504C12 16.7304 13.32 15.8904 15 16.8504Z" fill="white"/>
<defs>
<linearGradient id="paint0_linear_7402_6717" x1="42.3" y1="18.1814" x2="29.51" y2="30.9714" gradientUnits="userSpaceOnUse">
<stop stop-color="#00A0FF"/>
<stop offset="0.01" stop-color="#00A1FF"/>
<stop offset="0.26" stop-color="#00BEFF"/>
<stop offset="0.51" stop-color="#00D2FF"/>
<stop offset="0.76" stop-color="#00DFFF"/>
<stop offset="1" stop-color="#00E3FF"/>
</linearGradient>
<linearGradient id="paint1_linear_7402_6717" x1="61.4716" y1="31.7314" x2="32.4416" y2="31.7314" gradientUnits="userSpaceOnUse">
<stop stop-color="#FFE000"/>
<stop offset="0.41" stop-color="#FFBD00"/>
<stop offset="0.78" stop-color="#FFA500"/>
<stop offset="1" stop-color="#FF9C00"/>
</linearGradient>
<linearGradient id="paint2_linear_7402_6717" x1="50.6616" y1="36.5014" x2="28.8716" y2="58.3014" gradientUnits="userSpaceOnUse">
<stop stop-color="#FF3A44"/>
<stop offset="1" stop-color="#C31162"/>
</linearGradient>
<linearGradient id="paint3_linear_7402_6717" x1="29.6316" y1="14.5413" x2="39.3216" y2="24.2313" gradientUnits="userSpaceOnUse">
<stop stop-color="#32A071"/>
<stop offset="0.07" stop-color="#2DA771"/>
<stop offset="0.48" stop-color="#15CF74"/>
<stop offset="0.8" stop-color="#06E775"/>
<stop offset="1" stop-color="#00F076"/>
</linearGradient>
</defs>
</svg>
