<svg width="140" height="27" viewBox="0 0 140 27" fill="none" xmlns="http://www.w3.org/2000/svg">
<path d="M50.2281 17.0398H44.3774L47.3028 9.01982L50.2281 17.0398ZM52.1247 22.2584C52.3808 22.9938 52.8395 23.4401 53.5006 23.5971C53.6493 23.6302 53.794 23.6467 53.9344 23.6467C54.4137 23.6467 54.8352 23.4855 55.1988 23.1633C55.5624 22.841 55.7442 22.4236 55.7442 21.9113C55.7442 21.6716 55.6987 21.4196 55.6078 21.1552L50.538 8.17692C50.1414 7.11916 49.6827 6.40434 49.1621 6.03247C48.6498 5.65234 48.03 5.46227 47.3028 5.46227C46.5756 5.46227 45.9516 5.65234 45.431 6.03247C44.9187 6.40434 44.4683 7.11916 44.0799 8.17692L39.0101 21.1552C38.9109 21.4196 38.8613 21.6758 38.8613 21.9237C38.8613 22.4278 39.0431 22.841 39.4067 23.1633C39.7703 23.4855 40.1959 23.6467 40.6835 23.6467C41.0719 23.6467 41.4272 23.531 41.7495 23.2996C42.0801 23.0682 42.3238 22.7211 42.4809 22.2584L43.4849 19.5065H51.1206L52.1247 22.2584Z" fill="#001732"/>
<path d="M60.9421 23.6095C61.4875 23.6095 61.909 23.436 62.2065 23.0889C62.5123 22.7335 62.6651 22.2295 62.6651 21.5766V13.3211H64.1402C64.9583 13.3211 65.3674 12.9658 65.3674 12.2551C65.3674 11.9163 65.2641 11.656 65.0575 11.4742C64.8592 11.2841 64.5782 11.1891 64.2146 11.1891H62.6651V10.5321C62.6651 9.50739 62.7684 8.84215 62.975 8.53639C63.1899 8.22237 63.6031 8.06536 64.2146 8.06536H65.1195C65.4665 8.06536 65.7351 7.94553 65.9252 7.70589C66.1153 7.46624 66.2103 7.17287 66.2103 6.82579C66.2103 6.47872 66.1111 6.17296 65.9128 5.90852C65.7145 5.63581 65.45 5.49946 65.1195 5.49946H63.6568C62.1776 5.49946 61.0661 5.8672 60.3224 6.60267C59.5786 7.33815 59.2067 8.51573 59.2067 10.1354V11.1891H58.0663C58.0498 11.1891 58.0416 11.1891 58.0416 11.1891C57.7689 11.1891 57.5457 11.2428 57.3722 11.3502C57.1987 11.4494 57.0747 11.5775 57.0003 11.7345C56.9342 11.8832 56.9012 12.0568 56.9012 12.2551C56.9012 12.9492 57.3143 13.3046 58.1407 13.3211H59.2067V21.5766C59.2067 22.2295 59.3596 22.7335 59.6654 23.0889C59.9794 23.436 60.405 23.6095 60.9421 23.6095Z" fill="#001732"/>
<path d="M69.2514 23.6095C69.8133 23.6095 70.243 23.4442 70.5405 23.1137C70.838 22.7831 70.9868 22.2956 70.9868 21.651V16.7299C70.9868 16.1928 71.0777 15.7341 71.2595 15.354C71.4495 14.9656 71.7099 14.6722 72.0404 14.4739C72.371 14.2673 72.7222 14.1186 73.094 14.0277C73.4742 13.9368 73.8915 13.8913 74.346 13.8913C74.7261 13.8913 75.0278 13.7467 75.2509 13.4575C75.4823 13.1682 75.598 12.8336 75.598 12.4534C75.598 12.065 75.4781 11.7345 75.2385 11.4618C75.0071 11.1891 74.6724 11.0527 74.2344 11.0527C73.4659 11.0527 72.7883 11.3213 72.2015 11.8584C71.6148 12.3956 71.2058 13.0277 70.9744 13.755L70.9868 12.7633C70.995 12.2675 70.8256 11.8791 70.4786 11.5981C70.1315 11.3089 69.7224 11.1643 69.2514 11.1643C68.7886 11.1643 68.3878 11.3089 68.049 11.5981C67.7102 11.8791 67.5408 12.2799 67.5408 12.8005V21.589C67.5408 22.2418 67.6895 22.7418 67.987 23.0889C68.2928 23.436 68.7142 23.6095 69.2514 23.6095Z" fill="#001732"/>
<path d="M79.4448 23.6095C80.0067 23.6095 80.4323 23.436 80.7215 23.0889C81.019 22.7335 81.1678 22.2253 81.1678 21.5642V13.2096C81.1678 12.5485 81.0108 12.0444 80.6967 11.6973C80.391 11.3419 79.9571 11.1643 79.3952 11.1643C78.858 11.1643 78.4407 11.3419 78.1432 11.6973C77.854 12.0444 77.7094 12.5485 77.7094 13.2096V21.5642C77.7094 22.2336 77.8581 22.7418 78.1556 23.0889C78.4531 23.436 78.8828 23.6095 79.4448 23.6095ZM79.4324 8.67275C80.0191 8.67275 80.4901 8.50747 80.8455 8.17692C81.2091 7.84637 81.3909 7.41252 81.3909 6.87538C81.3909 6.33823 81.2091 5.90438 80.8455 5.57383C80.4901 5.23502 80.0232 5.06561 79.4448 5.06561C78.858 5.06561 78.3829 5.23502 78.0193 5.57383C77.6639 5.90438 77.4863 6.33823 77.4863 6.87538C77.4863 7.41252 77.6639 7.84637 78.0193 8.17692C78.3746 8.50747 78.8456 8.67275 79.4324 8.67275Z" fill="#001732"/>
<path d="M92.8362 23.9814C94.9765 23.9814 96.778 23.4731 98.2407 22.4567C98.7614 22.0848 99.0217 21.6262 99.0217 21.0808C99.0217 20.8329 98.9638 20.5974 98.8481 20.3742C98.7324 20.1511 98.5754 19.9734 98.3771 19.8412C98.1788 19.7007 97.9639 19.6305 97.7325 19.6305C97.6499 19.6305 97.5631 19.6429 97.4722 19.6677C97.3813 19.6925 97.2945 19.7255 97.2119 19.7668C95.8484 20.4941 94.5468 20.8577 93.3073 20.8577C91.6793 20.8577 90.4397 20.3205 89.5886 19.2462C88.7374 18.1719 88.3118 16.6307 88.3118 14.6227C88.3118 10.4329 89.9852 8.33806 93.3321 8.33806C93.58 8.33806 93.8279 8.35459 94.0758 8.38765C94.332 8.4207 94.551 8.45789 94.7328 8.49921C94.9146 8.53226 95.1253 8.59011 95.3649 8.67275C95.6046 8.74712 95.7781 8.80497 95.8856 8.84628C95.993 8.8876 96.1583 8.95785 96.3814 9.05701C96.6128 9.14791 96.7491 9.20163 96.7904 9.21815C96.8896 9.25947 96.9888 9.29253 97.0879 9.31732C97.1954 9.33385 97.2945 9.34211 97.3854 9.34211C97.7986 9.34211 98.1457 9.18923 98.4267 8.88347C98.7076 8.56945 98.8481 8.20997 98.8481 7.80505C98.8481 7.62325 98.8151 7.44971 98.749 7.28443C98.6911 7.11916 98.5919 6.95801 98.4515 6.801C98.3192 6.63573 98.1498 6.49524 97.9432 6.37955C96.4888 5.60276 94.8857 5.21436 93.1337 5.21436C91.8528 5.21436 90.6629 5.43335 89.5638 5.87133C88.473 6.30931 87.5268 6.92909 86.7252 7.73068C85.9319 8.53226 85.3079 9.53218 84.8534 10.7304C84.3989 11.9287 84.1717 13.255 84.1717 14.7094C84.1717 16.1225 84.3907 17.4158 84.8286 18.5893C85.2749 19.7627 85.8864 20.742 86.6632 21.527C87.44 22.3038 88.3573 22.9071 89.415 23.3368C90.4728 23.7665 91.6132 23.9814 92.8362 23.9814Z" fill="#001732"/>
<path d="M100.997 20.2131C100.997 21.3039 101.393 22.1675 102.187 22.8038C102.988 23.4401 104.005 23.7582 105.236 23.7582C106.129 23.7582 106.901 23.5682 107.554 23.188C108.215 22.8079 108.686 22.2584 108.967 21.5394V21.8865C108.967 22.6137 109.24 23.1261 109.785 23.4236C110.033 23.5558 110.293 23.6219 110.566 23.6219C110.988 23.6219 111.355 23.4731 111.669 23.1756C111.983 22.8699 112.14 22.4443 112.14 21.8989V15.9366C112.14 15.0441 112.012 14.2756 111.756 13.631C111.5 12.9782 111.132 12.4617 110.653 12.0815C110.182 11.7014 109.636 11.4246 109.017 11.251C108.405 11.0692 107.707 10.9783 106.922 10.9783C105.195 10.9783 103.645 11.3048 102.273 11.9576C102.067 12.0568 101.914 12.1931 101.815 12.3666C101.716 12.5319 101.666 12.7179 101.666 12.9245C101.666 13.2467 101.774 13.5401 101.988 13.8045C102.203 14.069 102.464 14.2012 102.769 14.2012C102.811 14.2012 102.852 14.2012 102.893 14.2012C102.935 14.1929 102.976 14.1847 103.017 14.1764C103.067 14.1599 103.112 14.1434 103.154 14.1268C103.575 13.9533 103.91 13.8252 104.158 13.7426C104.406 13.6517 104.786 13.5484 105.298 13.4327C105.81 13.317 106.294 13.2591 106.748 13.2591C108.153 13.2591 108.856 13.9698 108.856 15.3912V16.2837C107.864 16.2837 107.021 16.3043 106.327 16.3456C105.633 16.3787 104.972 16.4489 104.344 16.5564C103.724 16.6638 103.216 16.8084 102.819 16.9902C102.43 17.172 102.092 17.4117 101.802 17.7092C101.513 17.9984 101.307 18.3496 101.183 18.7628C101.059 19.1677 100.997 19.6512 100.997 20.2131ZM105.806 21.713C105.261 21.713 104.827 21.556 104.505 21.2419C104.191 20.9279 104.034 20.4941 104.034 19.9404C104.034 19.6842 104.063 19.4611 104.12 19.271C104.187 19.0727 104.273 18.9033 104.381 18.7628C104.496 18.6223 104.658 18.5066 104.864 18.4157C105.071 18.3166 105.286 18.2381 105.509 18.1802C105.74 18.1224 106.038 18.0769 106.401 18.0439C106.773 18.0108 107.137 17.9901 107.492 17.9819C107.856 17.9736 108.306 17.9695 108.843 17.9695V18.3785C108.843 18.8578 108.752 19.3123 108.57 19.7421C108.397 20.1635 108.166 20.5189 107.876 20.8081C107.587 21.0891 107.261 21.3122 106.897 21.4774C106.542 21.6345 106.178 21.713 105.806 21.713Z" fill="#001732"/>
<path d="M115.491 22.3204C116.88 23.2955 118.537 23.783 120.462 23.783C121.437 23.783 122.297 23.6426 123.04 23.3616C123.792 23.0724 124.391 22.6261 124.838 22.0229C125.284 21.4196 125.507 20.6883 125.507 19.8288C125.507 19.2917 125.424 18.8206 125.259 18.4157C125.094 18.0108 124.834 17.6637 124.478 17.3745C124.131 17.077 123.722 16.8291 123.251 16.6307C122.788 16.4242 122.218 16.2341 121.54 16.0605L119.706 15.6019C119.094 15.4532 118.673 15.292 118.442 15.1185C118.21 14.9367 118.094 14.664 118.094 14.3004C118.094 14.0359 118.202 13.8169 118.417 13.6434C118.64 13.4616 118.9 13.3376 119.198 13.2715C119.503 13.2054 119.834 13.1724 120.189 13.1724C120.999 13.1724 121.983 13.3748 123.14 13.7798C123.197 13.8045 123.239 13.8211 123.263 13.8293C123.354 13.8624 123.441 13.8872 123.524 13.9037C123.615 13.9202 123.701 13.9285 123.784 13.9285C124.082 13.9285 124.321 13.8293 124.503 13.631C124.685 13.4244 124.776 13.1848 124.776 12.9121C124.776 12.6972 124.714 12.4947 124.59 12.3047C124.474 12.1063 124.292 11.9493 124.044 11.8336C122.739 11.2221 121.396 10.9164 120.016 10.9164C119.272 10.9164 118.594 10.9949 117.983 11.1519C117.371 11.3089 116.843 11.5361 116.396 11.8336C115.95 12.1311 115.603 12.5071 115.355 12.9616C115.115 13.4079 114.996 13.912 114.996 14.4739C114.996 14.821 115.029 15.135 115.095 15.416C115.161 15.6969 115.243 15.9449 115.343 16.1597C115.45 16.3663 115.599 16.5605 115.789 16.7423C115.987 16.9241 116.186 17.0811 116.384 17.2133C116.582 17.3373 116.843 17.4654 117.165 17.5976C117.487 17.7216 117.789 17.829 118.07 17.9199C118.359 18.0025 118.723 18.1058 119.161 18.2298L121.007 18.7132C121.545 18.8537 121.945 19.0396 122.21 19.271C122.483 19.5024 122.619 19.7668 122.619 20.0643C122.619 20.337 122.545 20.5767 122.396 20.7833C122.255 20.9816 122.061 21.1345 121.813 21.2419C121.565 21.3494 121.301 21.4279 121.02 21.4774C120.747 21.5188 120.454 21.5394 120.14 21.5394C119.966 21.5394 119.793 21.5353 119.619 21.527C119.446 21.5105 119.276 21.4857 119.111 21.4527C118.954 21.4196 118.809 21.3907 118.677 21.3659C118.553 21.3328 118.417 21.2874 118.268 21.2295C118.119 21.1717 117.999 21.1262 117.909 21.0932C117.826 21.0601 117.71 21.0105 117.561 20.9444C117.421 20.8701 117.326 20.8205 117.276 20.7957C117.227 20.7709 117.132 20.7213 116.991 20.6469C116.859 20.5643 116.785 20.5189 116.768 20.5106C116.545 20.3866 116.322 20.3247 116.099 20.3247C115.95 20.3247 115.805 20.3577 115.665 20.4238C115.524 20.4817 115.409 20.5643 115.318 20.6717C115.227 20.7792 115.153 20.899 115.095 21.0312C115.045 21.1634 115.02 21.2998 115.02 21.4403C115.02 21.6138 115.058 21.7791 115.132 21.9361C115.215 22.0848 115.334 22.2129 115.491 22.3204Z" fill="#001732"/>
<path d="M139.989 15.6515C139.989 14.8582 139.87 14.1558 139.63 13.5442C139.39 12.9245 139.06 12.4328 138.638 12.0692C138.217 11.6973 137.742 11.4204 137.213 11.2386C136.684 11.0486 136.11 10.9535 135.49 10.9535C134.556 10.9535 133.75 11.123 133.073 11.4618C132.395 11.8006 131.862 12.284 131.474 12.9121V7.69349C131.474 7.04892 131.321 6.55309 131.015 6.20601C130.709 5.85893 130.275 5.6854 129.713 5.6854C129.176 5.6854 128.759 5.85893 128.461 6.20601C128.172 6.55309 128.028 7.04892 128.028 7.69349V21.589C128.028 22.2418 128.176 22.7418 128.474 23.0889C128.78 23.436 129.201 23.6095 129.738 23.6095C130.3 23.6095 130.73 23.436 131.027 23.0889C131.333 22.7418 131.486 22.2418 131.486 21.589V16.4696C131.486 15.511 131.767 14.7342 132.329 14.1392C132.891 13.536 133.56 13.2343 134.337 13.2343C134.982 13.2343 135.506 13.4533 135.911 13.8913C136.324 14.321 136.531 14.9408 136.531 15.7507V21.589C136.531 22.2418 136.68 22.7418 136.977 23.0889C137.283 23.436 137.704 23.6095 138.242 23.6095C138.804 23.6095 139.233 23.436 139.531 23.0889C139.828 22.7418 139.977 22.2418 139.977 21.589L139.989 15.6515Z" fill="#001732"/>
<path d="M21.0992 6.91534H23.2625C23.2615 6.05503 22.9193 5.23025 22.311 4.62192C21.7027 4.01359 20.8779 3.67139 20.0176 3.67039V5.83369C20.3044 5.83401 20.5793 5.94807 20.7821 6.15085C20.9848 6.35363 21.0989 6.62857 21.0992 6.91534Z" fill="#0E50C4"/>
<path d="M20.0176 0.442619V2.60592C21.1647 2.60721 22.2644 3.06346 23.0755 3.87458C23.8866 4.68569 24.3429 5.78543 24.3442 6.93252H26.5075C26.5056 5.21187 25.8212 3.56224 24.6045 2.34556C23.3879 1.12888 21.7382 0.444516 20.0176 0.442619V0.442619Z" fill="#0E50C4"/>
<path d="M23.2649 13.4235H17.8567C17.2829 13.4235 16.7327 13.6514 16.327 14.0571C15.9213 14.4628 15.6934 15.013 15.6934 15.5868V17.7501C15.6934 18.3238 15.9213 18.8741 16.327 19.2798C16.7327 19.6855 17.2829 19.9134 17.8567 19.9134H23.2649C23.5518 19.9134 23.8269 19.7994 24.0298 19.5966C24.2326 19.3937 24.3466 19.1186 24.3466 18.8317V14.5051C24.3466 14.2183 24.2326 13.9431 24.0298 13.7403C23.8269 13.5374 23.5518 13.4235 23.2649 13.4235Z" fill="#0E50C4"/>
<path d="M14.6103 17.7496V15.5863C14.6113 14.726 14.9535 13.9013 15.5618 13.2929C16.1701 12.6846 16.9949 12.3424 17.8552 12.3414H22.1818V11.2597C22.1806 10.1127 21.7243 9.01291 20.9132 8.2018C20.1021 7.39068 19.0023 6.93443 17.8552 6.93314H1.63048C1.34361 6.93314 1.06849 7.0471 0.865636 7.24995C0.662787 7.4528 0.548828 7.72792 0.548828 8.01479L0.548828 25.3212C0.548828 25.6081 0.662787 25.8832 0.865636 26.086C1.06849 26.2889 1.34361 26.4029 1.63048 26.4029H17.8552C19.0023 26.4016 20.1021 25.9453 20.9132 25.1342C21.7243 24.3231 22.1806 23.2233 22.1818 22.0763V20.9946H17.8552C16.9949 20.9936 16.1701 20.6514 15.5618 20.0431C14.9535 19.4347 14.6113 18.61 14.6103 17.7496ZM11.3653 14.5047H7.57956C7.43612 14.5047 7.29856 14.5617 7.19714 14.6631C7.09571 14.7645 7.03873 14.9021 7.03873 15.0455C7.03873 15.189 7.09571 15.3265 7.19714 15.4279C7.29856 15.5294 7.43612 15.5863 7.57956 15.5863H8.66121C9.33181 15.5857 9.97873 15.8342 10.4764 16.2837C10.9741 16.7331 11.287 17.3515 11.3544 18.0187C11.4218 18.6859 11.2388 19.3544 10.8411 19.8943C10.4434 20.4342 9.85922 20.8071 9.20203 20.9405V22.0763H7.03873V20.9946H4.87543V18.8313H8.66121C8.80464 18.8313 8.94221 18.7743 9.04363 18.6729C9.14505 18.5715 9.20203 18.4339 9.20203 18.2905C9.20203 18.147 9.14505 18.0095 9.04363 17.9081C8.94221 17.8066 8.80464 17.7496 8.66121 17.7496H7.57956C6.90896 17.7503 6.26203 17.5018 5.76437 17.0523C5.2667 16.6028 4.9538 15.9845 4.8864 15.3173C4.81901 14.6501 5.00193 13.9816 5.39966 13.4417C5.79739 12.9018 6.38155 12.5289 7.03873 12.3955V11.2597H9.20203V12.3414H11.3653V14.5047Z" fill="#0E50C4"/>
<rect x="2.69141" y="10.2723" width="10.4595" height="13.6099" fill="#0E50C4"/>
</svg>
