<svg width="205" height="64" viewBox="0 0 205 64" fill="none" xmlns="http://www.w3.org/2000/svg">
<path d="M196.932 0.44104H7.61751C3.43492 0.44104 0.0449219 3.99759 0.0449219 8.37386V55.9707C0.0449219 60.347 3.43492 63.9036 7.61751 63.9036H196.932C201.115 63.9036 204.505 60.347 204.505 55.9707V8.37386C204.505 3.99759 201.115 0.44104 196.932 0.44104Z" fill="white"/>
<path d="M77.7957 20.4123C77.7957 21.3723 77.5557 22.2123 76.9557 22.8123C76.2357 23.5323 75.3957 23.8923 74.3157 23.8923C73.2357 23.8923 72.3957 23.5323 71.6757 22.8123C70.9557 22.0923 70.5957 21.2523 70.5957 20.1723C70.5957 19.0923 70.9557 18.2523 71.6757 17.5323C72.3957 16.8123 73.2357 16.4523 74.3157 16.4523C74.7957 16.4523 75.2757 16.5723 75.7557 16.8123C76.2357 17.0523 76.5957 17.2923 76.8357 17.6523L76.2357 18.2523C75.7557 17.6523 75.1557 17.4123 74.3157 17.4123C73.5957 17.4123 72.8757 17.6523 72.3957 18.2523C71.7957 18.7323 71.5557 19.4523 71.5557 20.2923C71.5557 21.1323 71.7957 21.8523 72.3957 22.3323C72.9957 22.8123 73.5957 23.1723 74.3157 23.1723C75.1557 23.1723 75.7557 22.9323 76.3557 22.3323C76.7157 21.9723 76.9557 21.4923 76.9557 20.8923H74.3157V20.0523H77.7957V20.4123Z" fill="#252532" stroke="#252532" stroke-width="0.2" stroke-miterlimit="50"/>
<path d="M83.3152 17.4124H80.0752V19.6924H83.0752V20.5324H80.0752V22.8124H83.3152V23.7724H79.1152V16.5724H83.3152V17.4124Z" fill="#252532" stroke="#252532" stroke-width="0.2" stroke-miterlimit="50"/>
<path d="M87.2754 23.7724H86.3154V17.4124H84.2754V16.5724H89.3154V17.4124H87.2754V23.7724Z" fill="#252532" stroke="#252532" stroke-width="0.2" stroke-miterlimit="50"/>
<path d="M92.7949 23.7724V16.5724H93.7549V23.7724H92.7949Z" fill="#252532" stroke="#252532" stroke-width="0.2" stroke-miterlimit="50"/>
<path d="M97.8359 23.7724H96.8759V17.4124H94.8359V16.5724H99.7559V17.4124H97.7159V23.7724H97.8359Z" fill="#252532" stroke="#252532" stroke-width="0.2" stroke-miterlimit="50"/>
<path d="M103.837 20.1723C103.837 19.3323 104.197 18.6123 104.677 18.1323C105.157 17.5323 105.877 17.2923 106.597 17.2923C107.317 17.2923 108.037 17.6523 108.517 18.1323C109.117 18.6123 109.357 19.3323 109.357 20.1723C109.357 21.0123 108.997 21.7323 108.517 22.2123C108.037 22.8123 107.317 23.0523 106.597 23.0523C105.877 23.0523 105.157 22.6923 104.677 22.2123C104.077 21.7323 103.837 21.0123 103.837 20.1723ZM110.317 20.1723C110.317 19.0923 109.957 18.2523 109.237 17.5323C108.517 16.8123 107.677 16.4523 106.597 16.4523C105.517 16.4523 104.677 16.8123 103.957 17.5323C103.237 18.2523 102.877 19.0923 102.877 20.1723C102.877 21.2523 103.237 22.0923 103.957 22.8123C104.677 23.5323 105.517 23.8923 106.597 23.8923C107.677 23.8923 108.517 23.5323 109.237 22.8123C109.957 22.0923 110.317 21.2523 110.317 20.1723Z" fill="#252532" stroke="#252532" stroke-width="0.2" stroke-miterlimit="50"/>
<path d="M111.637 23.7724V16.5724H112.717L116.197 22.2124V20.7724V16.5724H117.157V23.7724H116.197L112.477 17.8924V23.7724H111.637Z" fill="#252532" stroke="#252532" stroke-width="0.2" stroke-miterlimit="50"/>
<path d="M149.196 29.1725H151.476V44.1725H149.196V29.1725ZM171.756 34.5725L165.636 48.7325H163.356L165.636 43.6925L161.676 34.5725H164.076L166.716 41.0525H166.836L169.356 34.5725H171.756ZM159.396 40.0925C158.796 39.8525 158.316 39.6125 157.356 39.6125C156.276 39.6125 154.956 39.9725 154.956 41.1725C154.956 42.1325 156.036 42.4925 156.756 42.4925C157.956 42.4925 159.156 41.5325 159.396 40.0925ZM161.796 38.4125V44.1725H159.636V42.9725H159.516C158.916 43.6925 158.196 44.4125 156.636 44.4125C154.716 44.4125 152.916 43.0925 152.916 41.0525C152.916 38.8925 155.076 37.6925 157.236 37.6925C158.196 37.6925 159.156 38.0525 159.516 38.2925V38.1725C159.396 36.9725 158.316 36.2525 157.116 36.2525C156.276 36.2525 155.556 36.4925 155.076 37.3325L153.036 36.4925C153.636 34.9325 155.316 34.2125 156.996 34.2125C159.516 34.2125 161.556 35.7725 161.796 38.4125ZM145.836 33.7325C145.836 32.6525 144.876 31.2125 143.196 31.2125H139.956V36.3725H143.196C144.756 36.3725 145.716 35.0525 145.836 33.7325ZM147.996 33.8525C147.996 36.7325 145.596 38.5325 143.076 38.5325H139.956V44.1725H137.676V29.1725H143.076C145.596 29.1725 147.996 30.9725 147.996 33.8525ZM116.556 39.3725C116.556 37.5725 115.356 36.2525 113.796 36.2525C112.236 36.2525 110.916 37.5725 110.916 39.3725C110.916 41.1725 112.236 42.4925 113.796 42.4925C115.356 42.4925 116.556 41.1725 116.556 39.3725ZM116.436 34.5725H118.596V43.6925C118.596 47.4125 116.436 48.9725 113.796 48.9725C111.276 48.9725 109.836 47.2925 109.236 45.9725L111.156 45.1325C111.396 45.9725 112.356 46.9325 113.676 46.9325C115.356 46.9325 116.436 45.8525 116.436 43.9325V43.2125H116.316C115.836 43.8125 114.876 44.4125 113.676 44.4125C111.036 44.4125 108.756 42.2525 108.756 39.3725C108.756 36.4925 111.156 34.2125 113.676 34.2125C114.876 34.2125 115.836 34.8125 116.436 35.4125V34.5725ZM120.036 29.1725H122.316V44.1725H120.036V29.1725ZM130.236 37.3325C129.996 36.7325 129.156 36.2525 128.316 36.2525C127.236 36.2525 125.676 37.3325 125.676 39.2525L130.236 37.3325ZM132.876 38.1725L126.036 41.0525C126.636 42.1325 127.356 42.6125 128.556 42.6125C129.756 42.6125 130.476 42.0125 131.076 41.1725L132.756 42.3725C132.276 43.2125 130.836 44.6525 128.556 44.6525C125.676 44.6525 123.516 42.3725 123.516 39.4925C123.516 36.3725 125.676 34.3325 128.316 34.3325C130.956 34.3325 132.156 36.3725 132.636 37.5725L132.876 38.1725ZM85.5963 35.8925C85.7163 36.2525 85.7163 36.7325 85.7163 37.2125C85.7163 38.7725 85.2363 40.8125 83.7963 42.2525C82.3563 43.8125 80.6763 44.5325 78.2763 44.5325C73.9563 44.5325 70.2363 40.9325 70.2363 36.6125C70.2363 32.2925 73.9563 28.6925 78.2763 28.6925C80.6763 28.6925 82.3563 29.6525 83.6763 30.8525L82.1163 32.4125C81.1563 31.5725 79.8363 30.8525 78.1563 30.8525C75.0363 30.8525 72.5163 33.3725 72.5163 36.6125C72.5163 39.8525 74.9163 42.3725 78.1563 42.3725C80.1963 42.3725 81.3963 41.5325 82.1163 40.8125C82.7163 40.2125 83.1963 39.2525 83.3163 38.0525H78.1563V35.8925H85.5963ZM94.3563 39.3725C94.3563 37.4525 93.0363 36.2525 91.4763 36.2525C89.9163 36.2525 88.5963 37.5725 88.5963 39.3725C88.5963 41.1725 89.9163 42.4925 91.4763 42.4925C93.0363 42.4925 94.3563 41.1725 94.3563 39.3725ZM96.6363 39.4925C96.6363 42.4925 94.3563 44.6525 91.4763 44.6525C88.5963 44.6525 86.3163 42.3725 86.3163 39.4925C86.3163 36.4925 88.5963 34.3325 91.4763 34.3325C94.3563 34.3325 96.6363 36.3725 96.6363 39.4925ZM105.516 39.3725C105.516 37.4525 104.196 36.2525 102.636 36.2525C101.076 36.2525 99.7563 37.5725 99.7563 39.3725C99.7563 41.1725 101.076 42.4925 102.636 42.4925C104.196 42.4925 105.516 41.1725 105.516 39.3725ZM107.796 39.4925C107.796 42.4925 105.516 44.6525 102.636 44.6525C99.7563 44.6525 97.4763 42.3725 97.4763 39.4925C97.4763 36.4925 99.7563 34.3325 102.636 34.3325C105.516 34.3325 107.796 36.3725 107.796 39.4925Z" fill="#252532"/>
<path d="M33.3949 17.1725C33.0349 17.5325 32.7949 18.1325 32.7949 18.8525V45.3725C32.7949 46.0925 33.0349 46.6925 33.3949 47.0525L33.5149 47.1725L48.3949 32.2925V32.0525L33.3949 17.1725Z" fill="url(#paint0_linear_7350_6672)"/>
<path d="M53.3165 37.3324L48.3965 32.4124V32.0524L53.3165 27.1324L53.4365 27.2524L59.3165 30.6124C60.9965 31.5724 60.9965 33.1324 59.3165 34.0924L53.3165 37.3324Z" fill="url(#paint1_linear_7350_6672)"/>
<path d="M53.4365 37.2125L48.3965 32.1725L33.3965 47.1725C33.9965 47.7725 34.8365 47.7725 35.9165 47.2925L53.4365 37.2125Z" fill="url(#paint2_linear_7350_6672)"/>
<path d="M53.4365 27.1363L35.9165 17.1763C34.8365 16.5763 33.9965 16.6963 33.3965 17.2963L48.3965 32.1763L53.4365 27.1363Z" fill="url(#paint3_linear_7350_6672)"/>
<defs>
<linearGradient id="paint0_linear_7350_6672" x1="42.3449" y1="18.6225" x2="29.5549" y2="31.4125" gradientUnits="userSpaceOnUse">
<stop stop-color="#00A0FF"/>
<stop offset="0.01" stop-color="#00A1FF"/>
<stop offset="0.26" stop-color="#00BEFF"/>
<stop offset="0.51" stop-color="#00D2FF"/>
<stop offset="0.76" stop-color="#00DFFF"/>
<stop offset="1" stop-color="#00E3FF"/>
</linearGradient>
<linearGradient id="paint1_linear_7350_6672" x1="61.5165" y1="32.1724" x2="32.4865" y2="32.1724" gradientUnits="userSpaceOnUse">
<stop stop-color="#FFE000"/>
<stop offset="0.41" stop-color="#FFBD00"/>
<stop offset="0.78" stop-color="#FFA500"/>
<stop offset="1" stop-color="#FF9C00"/>
</linearGradient>
<linearGradient id="paint2_linear_7350_6672" x1="50.7065" y1="36.9425" x2="28.9165" y2="58.7425" gradientUnits="userSpaceOnUse">
<stop stop-color="#FF3A44"/>
<stop offset="1" stop-color="#C31162"/>
</linearGradient>
<linearGradient id="paint3_linear_7350_6672" x1="29.6765" y1="14.9823" x2="39.3665" y2="24.6723" gradientUnits="userSpaceOnUse">
<stop stop-color="#32A071"/>
<stop offset="0.07" stop-color="#2DA771"/>
<stop offset="0.48" stop-color="#15CF74"/>
<stop offset="0.8" stop-color="#06E775"/>
<stop offset="1" stop-color="#00F076"/>
</linearGradient>
</defs>
</svg>
