<svg width="113" height="22" viewBox="0 0 113 22" fill="none" xmlns="http://www.w3.org/2000/svg">
<path d="M40.2148 13.4349H35.4788L37.8468 6.94289L40.2148 13.4349ZM41.75 17.6591C41.9574 18.2545 42.3286 18.6157 42.8638 18.7428C42.9842 18.7696 43.1012 18.7829 43.2149 18.7829C43.6029 18.7829 43.9441 18.6525 44.2384 18.3916C44.5327 18.1307 44.6799 17.7929 44.6799 17.3782C44.6799 17.1842 44.6431 16.9802 44.5695 16.7661L40.4656 6.26058C40.1446 5.40435 39.7733 4.82573 39.3519 4.52471C38.9371 4.21701 38.4354 4.06315 37.8468 4.06315C37.2581 4.06315 36.7531 4.21701 36.3317 4.52471C35.9169 4.82573 35.5524 5.40435 35.238 6.26058L31.1341 16.7661C31.0538 16.9802 31.0137 17.1875 31.0137 17.3882C31.0137 17.7963 31.1608 18.1307 31.4552 18.3916C31.7495 18.6525 32.094 18.7829 32.4887 18.7829C32.8031 18.7829 33.0907 18.6893 33.3516 18.502C33.6192 18.3147 33.8165 18.0337 33.9436 17.6591L34.7563 15.4316H40.9372L41.75 17.6591Z" fill="#001732"/>
<path d="M48.8875 18.7528C49.329 18.7528 49.6701 18.6124 49.911 18.3314C50.1585 18.0438 50.2822 17.6357 50.2822 17.1073V10.4247H51.4762C52.1385 10.4247 52.4696 10.137 52.4696 9.56175C52.4696 9.28749 52.386 9.07678 52.2188 8.92961C52.0582 8.77576 51.8308 8.69883 51.5365 8.69883H50.2822V8.16703C50.2822 7.33756 50.3658 6.79907 50.5331 6.55157C50.707 6.29738 51.0414 6.17028 51.5365 6.17028H52.2689C52.5499 6.17028 52.7673 6.07328 52.9211 5.87929C53.075 5.68531 53.1519 5.44784 53.1519 5.16688C53.1519 4.88593 53.0716 4.63843 52.9111 4.42437C52.7506 4.20363 52.5365 4.09325 52.2689 4.09325H51.0849C49.8875 4.09325 48.9878 4.39093 48.3858 4.98627C47.7838 5.58162 47.4827 6.53485 47.4827 7.84595V8.69883H46.5596C46.5462 8.69883 46.5395 8.69883 46.5395 8.69883C46.3188 8.69883 46.1382 8.74231 45.9977 8.82927C45.8572 8.90954 45.7569 9.01323 45.6967 9.14033C45.6432 9.26073 45.6164 9.40121 45.6164 9.56175C45.6164 10.1237 45.9509 10.4113 46.6198 10.4247H47.4827V17.1073C47.4827 17.6357 47.6065 18.0438 47.854 18.3314C48.1082 18.6124 48.4527 18.7528 48.8875 18.7528Z" fill="#001732"/>
<path d="M55.6136 18.7528C56.0685 18.7528 56.4163 18.6191 56.6571 18.3515C56.8979 18.0839 57.0184 17.6892 57.0184 17.1675V13.184C57.0184 12.7492 57.0919 12.3779 57.2391 12.0702C57.393 11.7558 57.6037 11.5184 57.8712 11.3578C58.1388 11.1906 58.4231 11.0702 58.7241 10.9966C59.0318 10.923 59.3696 10.8862 59.7376 10.8862C60.0453 10.8862 60.2894 10.7692 60.47 10.535C60.6573 10.3009 60.751 10.03 60.751 9.72229C60.751 9.4079 60.654 9.14033 60.46 8.91958C60.2727 8.69883 60.0018 8.58846 59.6472 8.58846C59.0251 8.58846 58.4766 8.80586 58.0017 9.24067C57.5267 9.67547 57.1956 10.1872 57.0083 10.7759L57.0184 9.97314C57.025 9.57178 56.8879 9.25739 56.607 9.02995C56.326 8.79583 55.9949 8.67876 55.6136 8.67876C55.239 8.67876 54.9146 8.79583 54.6403 9.02995C54.3661 9.25739 54.2289 9.58182 54.2289 10.0032V17.1173C54.2289 17.6458 54.3493 18.0505 54.5901 18.3314C54.8376 18.6124 55.1788 18.7528 55.6136 18.7528Z" fill="#001732"/>
<path d="M63.8649 18.7528C64.3197 18.7528 64.6642 18.6124 64.8984 18.3314C65.1392 18.0438 65.2596 17.6324 65.2596 17.0972V10.3344C65.2596 9.79922 65.1325 9.39117 64.8783 9.11022C64.6308 8.82258 64.2796 8.67876 63.8247 8.67876C63.3899 8.67876 63.0521 8.82258 62.8113 9.11022C62.5772 9.39117 62.4601 9.79922 62.4601 10.3344V17.0972C62.4601 17.6391 62.5805 18.0505 62.8213 18.3314C63.0622 18.6124 63.41 18.7528 63.8649 18.7528ZM63.8548 6.66194C64.3298 6.66194 64.7111 6.52816 64.9987 6.26058C65.293 5.99301 65.4402 5.64182 65.4402 5.20702C65.4402 4.77222 65.293 4.42103 64.9987 4.15346C64.7111 3.8792 64.3331 3.74207 63.8649 3.74207C63.3899 3.74207 63.0053 3.8792 62.711 4.15346C62.4233 4.42103 62.2795 4.77222 62.2795 5.20702C62.2795 5.64182 62.4233 5.99301 62.711 6.26058C62.9986 6.52816 63.3799 6.66194 63.8548 6.66194Z" fill="#001732"/>
<path d="M74.7049 19.0539C76.4374 19.0539 77.8957 18.6425 79.0797 17.8197C79.5011 17.5187 79.7118 17.1474 79.7118 16.7059C79.7118 16.5052 79.665 16.3146 79.5714 16.134C79.4777 15.9534 79.3506 15.8096 79.1901 15.7025C79.0295 15.5888 78.8556 15.5319 78.6683 15.5319C78.6014 15.5319 78.5312 15.542 78.4576 15.562C78.384 15.5821 78.3138 15.6089 78.2469 15.6423C77.1431 16.231 76.0896 16.5253 75.0862 16.5253C73.7684 16.5253 72.765 16.0905 72.076 15.2209C71.387 14.3513 71.0425 13.1037 71.0425 11.4782C71.0425 8.08676 72.3971 6.39103 75.1063 6.39103C75.3069 6.39103 75.5076 6.4044 75.7083 6.43116C75.9157 6.45792 76.0929 6.48802 76.2401 6.52147C76.3873 6.54822 76.5578 6.59505 76.7518 6.66194C76.9458 6.72215 77.0863 6.76897 77.1732 6.80242C77.2602 6.83586 77.394 6.89272 77.5746 6.97299C77.7619 7.04658 77.8723 7.09006 77.9057 7.10344C77.986 7.13688 78.0663 7.16364 78.1465 7.18371C78.2335 7.19709 78.3138 7.20377 78.3874 7.20377C78.7218 7.20377 79.0028 7.08002 79.2302 6.83252C79.4576 6.57833 79.5714 6.28734 79.5714 5.95957C79.5714 5.8124 79.5446 5.67193 79.4911 5.53814C79.4443 5.40435 79.364 5.27391 79.2503 5.14682C79.1432 5.01303 79.0061 4.89931 78.8389 4.80566C77.6616 4.17687 76.3638 3.86247 74.9457 3.86247C73.9089 3.86247 72.9456 4.03974 72.0559 4.39427C71.173 4.7488 70.407 5.2505 69.7582 5.89936C69.116 6.54822 68.611 7.35763 68.243 8.32758C67.8751 9.29752 67.6912 10.3712 67.6912 11.5485C67.6912 12.6923 67.8684 13.7392 68.223 14.6891C68.5842 15.639 69.0792 16.4317 69.708 17.0671C70.3368 17.6959 71.0793 18.1843 71.9355 18.5321C72.7918 18.8799 73.7149 19.0539 74.7049 19.0539Z" fill="#001732"/>
<path d="M81.3106 16.0035C81.3106 16.8865 81.6317 17.5856 82.2739 18.1006C82.9227 18.6157 83.7455 18.8732 84.7422 18.8732C85.4647 18.8732 86.0901 18.7194 86.6186 18.4117C87.1537 18.104 87.535 17.6591 87.7624 17.0772V17.3581C87.7624 17.9468 87.9832 18.3615 88.4247 18.6023C88.6253 18.7094 88.8361 18.7629 89.0568 18.7629C89.398 18.7629 89.6956 18.6425 89.9498 18.4017C90.204 18.1541 90.3311 17.8096 90.3311 17.3682V12.5418C90.3311 11.8194 90.2274 11.1973 90.0201 10.6755C89.8127 10.1471 89.515 9.72898 89.127 9.42128C88.7458 9.11357 88.3043 8.88948 87.8026 8.749C87.3076 8.60184 86.7423 8.52826 86.1068 8.52826C84.7088 8.52826 83.4545 8.79248 82.3441 9.32094C82.1769 9.40121 82.0531 9.51158 81.9728 9.65206C81.8926 9.78584 81.8524 9.93635 81.8524 10.1036C81.8524 10.3645 81.9394 10.6019 82.1133 10.816C82.2872 11.0301 82.498 11.1371 82.7455 11.1371C82.7789 11.1371 82.8124 11.1371 82.8458 11.1371C82.8792 11.1304 82.9127 11.1237 82.9461 11.117C82.9863 11.1036 83.0231 11.0903 83.0565 11.0769C83.3977 10.9364 83.6686 10.8327 83.8693 10.7658C84.0699 10.6922 84.3776 10.6086 84.7924 10.515C85.2071 10.4213 85.5984 10.3745 85.9664 10.3745C87.1035 10.3745 87.6721 10.9498 87.6721 12.1003V12.8228C86.8694 12.8228 86.1871 12.8395 85.6252 12.873C85.0633 12.8997 84.5282 12.9566 84.0198 13.0435C83.5181 13.1305 83.1067 13.2476 82.7856 13.3947C82.4712 13.5419 82.1969 13.7359 81.9628 13.9767C81.7287 14.2108 81.5615 14.4951 81.4611 14.8296C81.3608 15.1573 81.3106 15.5487 81.3106 16.0035ZM85.2038 17.2176C84.7623 17.2176 84.4111 17.0906 84.1502 16.8364C83.896 16.5822 83.7689 16.231 83.7689 15.7828C83.7689 15.5754 83.7923 15.3948 83.8392 15.241C83.8927 15.0804 83.9629 14.9433 84.0499 14.8296C84.1435 14.7159 84.274 14.6222 84.4412 14.5486C84.6084 14.4683 84.7823 14.4048 84.963 14.358C85.1503 14.3111 85.3911 14.2744 85.6854 14.2476C85.9864 14.2208 86.2808 14.2041 86.5684 14.1974C86.8627 14.1907 87.2273 14.1874 87.6621 14.1874V14.5185C87.6621 14.9065 87.5885 15.2744 87.4413 15.6223C87.3009 15.9634 87.1136 16.251 86.8794 16.4852C86.6453 16.7126 86.3811 16.8932 86.0868 17.027C85.7991 17.1541 85.5048 17.2176 85.2038 17.2176Z" fill="#001732"/>
<path d="M93.0437 17.7093C94.1675 18.4986 95.5087 18.8933 97.0673 18.8933C97.8566 18.8933 98.5523 18.7796 99.1543 18.5522C99.7631 18.318 100.248 17.9568 100.609 17.4685C100.97 16.9802 101.151 16.3882 101.151 15.6925C101.151 15.2577 101.084 14.8764 100.95 14.5486C100.817 14.2208 100.606 13.9399 100.318 13.7058C100.037 13.465 99.7062 13.2643 99.3249 13.1037C98.9503 12.9365 98.4887 12.7826 97.9402 12.6422L96.4552 12.2709C95.9602 12.1505 95.619 12.0201 95.4317 11.8796C95.2444 11.7324 95.1508 11.5117 95.1508 11.2174C95.1508 11.0033 95.2377 10.826 95.4117 10.6856C95.5923 10.5384 95.803 10.438 96.0438 10.3845C96.2913 10.331 96.5589 10.3043 96.8465 10.3043C97.5021 10.3043 98.2981 10.4682 99.2346 10.7959C99.2814 10.816 99.3149 10.8294 99.3349 10.8361C99.4085 10.8628 99.4788 10.8829 99.5456 10.8963C99.6192 10.9096 99.6895 10.9163 99.7564 10.9163C99.9972 10.9163 100.191 10.8361 100.338 10.6755C100.485 10.5083 100.559 10.3143 100.559 10.0935C100.559 9.91963 100.509 9.75574 100.409 9.60189C100.315 9.44134 100.168 9.31425 99.9671 9.2206C98.9102 8.72559 97.8232 8.47809 96.706 8.47809C96.104 8.47809 95.5555 8.54163 95.0605 8.66873C94.5655 8.79583 94.1374 8.97978 93.7761 9.2206C93.4149 9.46141 93.134 9.76577 92.9333 10.1337C92.7393 10.4949 92.6423 10.903 92.6423 11.3578C92.6423 11.6388 92.6691 11.893 92.7226 12.1204C92.7761 12.3478 92.843 12.5485 92.9232 12.7224C93.0102 12.8897 93.1306 13.0469 93.2845 13.194C93.445 13.3412 93.6056 13.4683 93.7661 13.5753C93.9266 13.6757 94.1374 13.7794 94.3982 13.8864C94.6591 13.9867 94.9033 14.0737 95.1307 14.1473C95.3648 14.2142 95.6592 14.2978 96.0137 14.3981L97.5088 14.7894C97.9436 14.9032 98.268 15.0537 98.4821 15.241C98.7028 15.4283 98.8132 15.6423 98.8132 15.8831C98.8132 16.1039 98.753 16.2979 98.6326 16.4651C98.5188 16.6256 98.3616 16.7494 98.161 16.8364C97.9603 16.9233 97.7462 16.9869 97.5188 17.027C97.298 17.0604 97.0606 17.0772 96.8064 17.0772C96.6659 17.0772 96.5254 17.0738 96.385 17.0671C96.2445 17.0538 96.1074 17.0337 95.9736 17.0069C95.8465 16.9802 95.7294 16.9568 95.6224 16.9367C95.522 16.9099 95.4117 16.8731 95.2913 16.8263C95.1708 16.7795 95.0739 16.7427 95.0003 16.716C94.9334 16.6892 94.8397 16.6491 94.7193 16.5955C94.6056 16.5353 94.5287 16.4952 94.4885 16.4751C94.4484 16.4551 94.3715 16.4149 94.2578 16.3547C94.1507 16.2878 94.0905 16.251 94.0771 16.2444C93.8965 16.144 93.7159 16.0938 93.5353 16.0938C93.4149 16.0938 93.2978 16.1206 93.1841 16.1741C93.0704 16.2209 92.9768 16.2878 92.9032 16.3748C92.8296 16.4618 92.7694 16.5588 92.7226 16.6658C92.6824 16.7728 92.6624 16.8832 92.6624 16.9969C92.6624 17.1374 92.6925 17.2712 92.7527 17.3983C92.8196 17.5187 92.9166 17.6223 93.0437 17.7093Z" fill="#001732"/>
<path d="M112.874 12.3111C112.874 11.6689 112.777 11.1003 112.583 10.6053C112.389 10.1036 112.122 9.70557 111.78 9.41124C111.439 9.11022 111.055 8.88613 110.626 8.73897C110.198 8.58511 109.733 8.50819 109.232 8.50819C108.476 8.50819 107.824 8.64532 107.275 8.91958C106.727 9.19384 106.295 9.58516 105.981 10.0935V5.86926C105.981 5.3475 105.857 4.94614 105.61 4.66519C105.362 4.38424 105.011 4.24376 104.556 4.24376C104.121 4.24376 103.783 4.38424 103.543 4.66519C103.308 4.94614 103.191 5.3475 103.191 5.86926V17.1173C103.191 17.6458 103.312 18.0505 103.553 18.3314C103.8 18.6124 104.141 18.7528 104.576 18.7528C105.031 18.7528 105.379 18.6124 105.62 18.3314C105.867 18.0505 105.991 17.6458 105.991 17.1173V12.9733C105.991 12.1973 106.218 11.5685 106.673 11.0869C107.128 10.5986 107.67 10.3544 108.299 10.3544C108.82 10.3544 109.245 10.5317 109.573 10.8862C109.907 11.2341 110.075 11.7358 110.075 12.3913V17.1173C110.075 17.6458 110.195 18.0505 110.436 18.3314C110.683 18.6124 111.024 18.7528 111.459 18.7528C111.914 18.7528 112.262 18.6124 112.503 18.3314C112.744 18.0505 112.864 17.6458 112.864 17.1173L112.874 12.3111Z" fill="#001732"/>
<path d="M16.6353 5.23925H18.3865C18.3857 4.54285 18.1087 3.87521 17.6162 3.38279C17.1238 2.89036 16.4562 2.61336 15.7598 2.61255V4.36368C15.9919 4.36394 16.2145 4.45627 16.3786 4.62042C16.5427 4.78456 16.6351 5.00711 16.6353 5.23925Z" fill="#0071FE"/>
<path d="M15.7598 0V1.75113C16.6883 1.75218 17.5785 2.1215 18.2351 2.77808C18.8917 3.43465 19.261 4.32486 19.262 5.2534H21.0132C21.0116 3.86058 20.4577 2.52525 19.4728 1.54038C18.4879 0.55551 17.1526 0.00153536 15.7598 0V0Z" fill="#0071FE"/>
<path d="M18.3887 10.5077H14.0109C13.5465 10.5077 13.1011 10.6922 12.7727 11.0206C12.4443 11.349 12.2598 11.7944 12.2598 12.2588V14.01C12.2598 14.4744 12.4443 14.9198 12.7727 15.2482C13.1011 15.5766 13.5465 15.7611 14.0109 15.7611H18.3887C18.621 15.7611 18.8437 15.6688 19.0079 15.5046C19.1721 15.3404 19.2643 15.1177 19.2643 14.8855V11.3833C19.2643 11.151 19.1721 10.9283 19.0079 10.7641C18.8437 10.5999 18.621 10.5077 18.3887 10.5077Z" fill="#0071FE"/>
<path d="M11.3824 14.0095V12.2583C11.3832 11.5619 11.6602 10.8943 12.1526 10.4019C12.645 9.90943 13.3127 9.63243 14.0091 9.63162H17.5113V8.75605C17.5103 7.82751 17.141 6.9373 16.4844 6.28073C15.8278 5.62415 14.9376 5.25483 14.0091 5.25378H0.875567C0.643352 5.25378 0.420648 5.34603 0.256448 5.51023C0.092247 5.67443 0 5.89714 0 6.12935L0 20.1384C0 20.3706 0.092247 20.5933 0.256448 20.7575C0.420648 20.9217 0.643352 21.014 0.875567 21.014H14.0091C14.9376 21.0129 15.8278 20.6436 16.4844 19.987C17.141 19.3305 17.5103 18.4403 17.5113 17.5117V16.6362H14.0091C13.3127 16.6353 12.645 16.3583 12.1526 15.8659C11.6602 15.3735 11.3832 14.7058 11.3824 14.0095V14.0095ZM8.75567 11.3828H5.69119C5.57508 11.3828 5.46373 11.4289 5.38163 11.511C5.29953 11.5931 5.2534 11.7044 5.2534 11.8205C5.2534 11.9366 5.29953 12.048 5.38163 12.1301C5.46373 12.2122 5.57508 12.2583 5.69119 12.2583H6.56675C7.10958 12.2578 7.63325 12.4589 8.0361 12.8228C8.43895 13.1866 8.69224 13.6872 8.74679 14.2273C8.80134 14.7673 8.65327 15.3084 8.33132 15.7455C8.00937 16.1825 7.53651 16.4844 7.00454 16.5924V17.5117H5.2534V16.6362H3.50227V14.885H6.56675C6.68286 14.885 6.79421 14.8389 6.87631 14.7568C6.95841 14.6747 7.00454 14.5633 7.00454 14.4472C7.00454 14.3311 6.95841 14.2198 6.87631 14.1377C6.79421 14.0556 6.68286 14.0095 6.56675 14.0095H5.69119C5.14836 14.01 4.62469 13.8088 4.22184 13.445C3.81899 13.0811 3.5657 12.5806 3.51115 12.0405C3.4566 11.5004 3.60467 10.9594 3.92662 10.5223C4.24857 10.0853 4.72143 9.78342 5.2534 9.6754V8.75605H7.00454V9.63162H8.75567V11.3828Z" fill="#0071FE"/>
<rect x="1.73438" y="7.95715" width="8.46665" height="11.0168" fill="#0071FE"/>
</svg>
