<svg width="166" height="64" viewBox="0 0 166 64" fill="none" xmlns="http://www.w3.org/2000/svg">
<path d="M159.379 0H6.5976C3.22214 0 0.486328 3.55655 0.486328 7.93282V55.5298C0.486328 59.906 3.22214 63.4626 6.5976 63.4626H159.379C162.755 63.4626 165.491 59.906 165.491 55.5298V7.93282C165.491 3.55655 162.755 0 159.379 0Z" fill="white"/>
<path d="M35.4049 17.6113C34.0549 17.6713 32.3649 18.5413 31.3929 19.6813C30.5329 20.6913 29.7649 22.3413 29.9619 23.8913C31.4789 24.0113 33.0379 23.1313 34.0109 21.9813C34.9439 20.8113 35.5809 19.2213 35.4049 17.6113ZM40.3749 26.9103C38.7619 24.5503 36.2609 24.2313 35.3829 24.2113C33.2829 23.9813 31.2469 25.4613 30.1759 25.4613C29.0859 25.4613 27.4379 24.2313 25.6639 24.2613C23.3799 24.3013 21.2409 25.6213 20.0689 27.6793C17.6489 31.8673 19.4549 38.0243 21.7709 41.4133C22.9309 43.0723 24.2849 44.9313 26.0589 44.8613C27.7939 44.7913 28.4409 43.7513 30.5349 43.7513C32.6099 43.7513 33.2179 44.8613 35.0249 44.8213C36.8869 44.7913 38.0609 43.1513 39.1799 41.4833C40.5189 39.5733 41.0569 37.7043 41.0789 37.6153C41.0349 37.5953 37.4629 36.2353 37.4279 32.1073C37.3959 28.6593 40.2439 26.9903 40.3759 26.9103H40.3749Z" fill="#252532"/>
<path d="M59.3607 40.6713H53.4407L52.0187 44.8713H49.5117L55.1197 29.3213H57.7247L63.3317 44.8713H60.7817L59.3607 40.6713ZM54.0537 38.7313H58.7567L56.4377 31.9113H56.3737L54.0537 38.7313Z" fill="#252532"/>
<path d="M75.4375 39.2113C75.4375 42.7313 73.5535 44.9913 70.7105 44.9913C69.0975 44.9913 67.8165 44.2713 67.1485 43.0113H67.0945V48.6213H64.7695V33.5413H67.0195V35.4213H67.0625C67.7085 34.2113 69.0875 33.4213 70.6685 33.4213C73.5425 33.4213 75.4375 35.6913 75.4375 39.2113ZM73.0485 39.2113C73.0485 36.9113 71.8625 35.4013 70.0555 35.4013C68.2795 35.4013 67.0845 36.9413 67.0845 39.2113C67.0845 41.4913 68.2795 43.0213 70.0555 43.0213C71.8625 43.0213 73.0485 41.5213 73.0485 39.2113Z" fill="#252532"/>
<path d="M87.8965 39.2113C87.8965 42.7313 86.0145 44.9913 83.1715 44.9913C81.5585 44.9913 80.2775 44.2713 79.6095 43.0113H79.5555V48.6213H77.2305V33.5413H79.4805V35.4213H79.5235C80.1695 34.2113 81.5465 33.4213 83.1295 33.4213C86.0035 33.4213 87.8965 35.6913 87.8965 39.2113ZM85.5175 39.2113C85.5175 36.9113 84.3315 35.4013 82.5215 35.4013C80.7425 35.4013 79.5455 36.9413 79.5455 39.2113C79.5455 41.4913 80.7425 43.0213 82.5215 43.0213C84.3315 43.0213 85.5175 41.5213 85.5175 39.2113Z" fill="#252532"/>
<path d="M96.1417 40.5413C96.3127 42.0813 97.8097 43.0913 99.8537 43.0913C101.814 43.0913 103.223 42.0813 103.223 40.6913C103.223 39.4813 102.373 38.7613 100.36 38.2713L98.3467 37.7813C95.4947 37.0913 94.1707 35.7613 94.1707 33.5913C94.1707 30.9113 96.5067 29.0613 99.8217 29.0613C103.104 29.0613 105.354 30.9113 105.429 33.5913H103.083C102.943 32.0413 101.661 31.1013 99.7897 31.1013C97.9157 31.1013 96.6357 32.0513 96.6357 33.4313C96.6357 34.5313 97.4537 35.1713 99.4557 35.6713L101.167 36.0913C104.354 36.8413 105.678 38.1313 105.678 40.4013C105.678 43.3113 103.363 45.1313 99.6817 45.1313C96.2377 45.1313 93.9117 43.3513 93.7617 40.5413H96.1417Z" fill="#252532"/>
<path d="M110.692 30.8513V33.5413H112.845V35.3813H110.692V41.6313C110.692 42.6013 111.123 43.0513 112.07 43.0513C112.306 43.0513 112.684 43.0213 112.834 43.0013V44.8313C112.577 44.9013 112.06 44.9413 111.543 44.9413C109.251 44.9413 108.357 44.0813 108.357 41.8813V35.3813H106.711V33.5413H108.357V30.8513H110.692Z" fill="#252532"/>
<path d="M114.09 39.2114C114.09 35.6414 116.188 33.4014 119.46 33.4014C122.743 33.4014 124.832 35.6414 124.832 39.2114C124.832 42.7814 122.754 45.0114 119.46 45.0114C116.167 45.0114 114.09 42.7814 114.09 39.2114ZM122.463 39.2114C122.463 36.7614 121.344 35.3114 119.46 35.3114C117.577 35.3114 116.458 36.7714 116.458 39.2114C116.458 41.6614 117.577 43.0914 119.46 43.0914C121.344 43.0914 122.463 41.6614 122.463 39.2114Z" fill="#252532"/>
<path d="M126.75 33.5413H128.967V35.4713H129.021C129.376 34.1813 130.409 33.4213 131.744 33.4213C132.078 33.4213 132.357 33.4613 132.541 33.5013V35.6813C132.357 35.6113 131.948 35.5413 131.496 35.5413C130 35.5413 129.075 36.5513 129.075 38.1513V44.8713H126.75V33.5413Z" fill="#252532"/>
<path d="M143.255 41.5414C142.943 43.6014 140.941 45.0114 138.38 45.0114C135.086 45.0114 133.041 42.8014 133.041 39.2614C133.041 35.7014 135.097 33.4014 138.282 33.4014C141.415 33.4014 143.385 35.5514 143.385 38.9914V39.7914H135.387V39.9314C135.387 41.8714 136.604 43.1414 138.434 43.1414C139.725 43.1414 140.738 42.5214 141.049 41.5414H143.255ZM135.398 38.1614H141.059C141.005 36.4214 139.897 35.2814 138.282 35.2814C136.679 35.2814 135.517 36.4514 135.398 38.1614Z" fill="#252532"/>
<path d="M53.7565 17.6213C55.9695 17.6213 57.2685 18.9813 57.2685 21.3313C57.2685 23.7213 55.9795 25.0913 53.7565 25.0913H51.0605V17.6213H53.7565ZM52.2205 24.0313H53.6275C55.1885 24.0313 56.0875 23.0613 56.0875 21.3513C56.0875 19.6613 55.1735 18.6713 53.6275 18.6713H52.2205V24.0313Z" fill="#252532"/>
<path d="M58.5801 22.2713C58.5801 20.4513 59.5931 19.3413 61.2381 19.3413C62.8771 19.3413 63.8921 20.4513 63.8921 22.2713C63.8921 24.1013 62.8821 25.2013 61.2381 25.2013C59.5881 25.2013 58.5801 24.1013 58.5801 22.2713ZM62.7481 22.2713C62.7481 21.0513 62.1991 20.3313 61.2381 20.3313C60.2711 20.3313 59.7281 21.0513 59.7281 22.2713C59.7281 23.5013 60.2711 24.2113 61.2381 24.2113C62.1991 24.2113 62.7481 23.5013 62.7481 22.2713Z" fill="#252532"/>
<path d="M70.9504 25.0913H69.7974L68.6334 20.9413H68.5454L67.3864 25.0913H66.2454L64.6914 19.4513H65.8194L66.8274 23.7513H66.9114L68.0694 19.4513H69.1354L70.2934 23.7513H70.3814L71.3854 19.4513H72.4974L70.9504 25.0913Z" fill="#252532"/>
<path d="M73.8008 19.4513H74.8708V20.3513H74.9528C75.2268 19.7213 75.7858 19.3413 76.6338 19.3413C77.8908 19.3413 78.5838 20.1013 78.5838 21.4413V25.0913H77.4718V21.7213C77.4718 20.8113 77.0798 20.3613 76.2568 20.3613C75.4348 20.3613 74.9118 20.9113 74.9118 21.7913V25.0913H73.8008V19.4513Z" fill="#252532"/>
<path d="M80.3613 25.0912H81.4733V17.2512H80.3613V25.0912Z" fill="#252532"/>
<path d="M83.0117 22.2713C83.0117 20.4513 84.0257 19.3413 85.6697 19.3413C87.3097 19.3413 88.3237 20.4513 88.3237 22.2713C88.3237 24.1013 87.3147 25.2013 85.6697 25.2013C84.0207 25.2013 83.0117 24.1013 83.0117 22.2713ZM87.1787 22.2713C87.1787 21.0513 86.6307 20.3313 85.6697 20.3313C84.7037 20.3313 84.1627 21.0513 84.1627 22.2713C84.1627 23.5013 84.7037 24.2113 85.6697 24.2113C86.6297 24.2113 87.1787 23.5013 87.1787 22.2713Z" fill="#252532"/>
<path d="M89.5 23.5013C89.5 22.4813 90.254 21.9013 91.595 21.8113L93.119 21.7213V21.2413C93.119 20.6413 92.727 20.3113 91.967 20.3113C91.347 20.3113 90.917 20.5313 90.793 20.9313H89.717C89.831 19.9613 90.741 19.3413 92.019 19.3413C93.431 19.3413 94.226 20.0513 94.226 21.2413V25.0913H93.157V24.3013H93.068C92.733 24.8613 92.118 25.1813 91.377 25.1813C90.292 25.1813 89.5 24.5313 89.5 23.5013ZM93.121 23.0113V22.5413L91.745 22.6313C90.967 22.6813 90.615 22.9513 90.615 23.4413C90.615 23.9513 91.055 24.2513 91.661 24.2513C92.501 24.2513 93.121 23.7113 93.121 23.0113Z" fill="#252532"/>
<path d="M95.6797 22.2712C95.6797 20.4912 96.5957 19.3612 98.0177 19.3612C98.7897 19.3612 99.4397 19.7312 99.7447 20.3512H99.8287V17.2512H100.94V25.0912H99.8747V24.2012H99.7857C99.4507 24.8212 98.7927 25.1812 98.0177 25.1812C96.5857 25.1812 95.6797 24.0612 95.6797 22.2712ZM96.8287 22.2712C96.8287 23.4612 97.3907 24.1812 98.3327 24.1812C99.2697 24.1812 99.8487 23.4512 99.8487 22.2712C99.8487 21.1012 99.2637 20.3612 98.3327 20.3612C97.3977 20.3612 96.8287 21.0812 96.8287 22.2712Z" fill="#252532"/>
<path d="M105.541 22.2713C105.541 20.4513 106.555 19.3413 108.199 19.3413C109.838 19.3413 110.853 20.4513 110.853 22.2713C110.853 24.1013 109.843 25.2013 108.199 25.2013C106.55 25.2013 105.541 24.1013 105.541 22.2713ZM109.709 22.2713C109.709 21.0513 109.16 20.3313 108.199 20.3313C107.232 20.3313 106.689 21.0513 106.689 22.2713C106.689 23.5013 107.232 24.2113 108.199 24.2113C109.16 24.2113 109.709 23.5013 109.709 22.2713Z" fill="#252532"/>
<path d="M112.34 19.4513H113.41V20.3513H113.492C113.766 19.7213 114.325 19.3413 115.173 19.3413C116.43 19.3413 117.123 20.1013 117.123 21.4413V25.0913H116.011V21.7213C116.011 20.8113 115.619 20.3613 114.796 20.3613C113.974 20.3613 113.451 20.9113 113.451 21.7913V25.0913H112.34V19.4513Z" fill="#252532"/>
<path d="M123.406 18.0513V19.4813H124.627V20.4213H123.406V23.3113C123.406 23.9113 123.65 24.1613 124.203 24.1613C124.374 24.1613 124.472 24.1513 124.627 24.1413V25.0613C124.446 25.1013 124.238 25.1213 124.022 25.1213C122.786 25.1213 122.294 24.6913 122.294 23.6013V20.4213H121.4V19.4813H122.294V18.0513H123.406Z" fill="#252532"/>
<path d="M126.15 17.2512H127.252V20.3612H127.34C127.612 19.7312 128.208 19.3512 129.057 19.3512C130.256 19.3512 130.997 20.1112 130.997 21.4512V25.0912H129.884V21.7312C129.884 20.8212 129.465 20.3712 128.679 20.3712C127.769 20.3712 127.261 20.9412 127.261 21.8012V25.0912H126.15V17.2512Z" fill="#252532"/>
<path d="M137.472 23.5713C137.219 24.5813 136.319 25.2013 135.032 25.2013C133.418 25.2013 132.43 24.0913 132.43 22.2913C132.43 20.4913 133.44 19.3413 135.027 19.3413C136.594 19.3413 137.54 20.4213 137.54 22.1913V22.5713H133.562V22.6413C133.6 23.6213 134.174 24.2513 135.062 24.2513C135.736 24.2513 136.196 24.0113 136.403 23.5713H137.472ZM133.562 21.7513H136.408C136.381 20.8713 135.844 20.2913 135.021 20.2913C134.199 20.2913 133.625 20.8713 133.562 21.7513Z" fill="#252532"/>
</svg>
