<svg width="114" height="22" viewBox="0 0 114 22" fill="none" xmlns="http://www.w3.org/2000/svg">
<path d="M40.7636 13.9278H36.0276L38.3956 7.43581L40.7636 13.9278ZM42.2988 18.1521C42.5062 18.7474 42.8774 19.1086 43.4126 19.2357C43.533 19.2625 43.6501 19.2759 43.7638 19.2759C44.1518 19.2759 44.4929 19.1454 44.7872 18.8845C45.0816 18.6237 45.2287 18.2858 45.2287 17.8711C45.2287 17.6771 45.1919 17.4731 45.1184 17.259L41.0145 6.7535C40.6934 5.89727 40.3221 5.31865 39.9007 5.01763C39.486 4.70993 38.9843 4.55607 38.3956 4.55607C37.807 4.55607 37.3019 4.70993 36.8805 5.01763C36.4658 5.31865 36.1012 5.89727 35.7868 6.7535L31.6829 17.259C31.6026 17.4731 31.5625 17.6805 31.5625 17.8811C31.5625 18.2892 31.7097 18.6237 32.004 18.8845C32.2983 19.1454 32.6428 19.2759 33.0375 19.2759C33.3519 19.2759 33.6395 19.1822 33.9004 18.9949C34.168 18.8076 34.3653 18.5267 34.4924 18.1521L35.3052 15.9245H41.4861L42.2988 18.1521Z" fill="white"/>
<path d="M49.4363 19.2458C49.8778 19.2458 50.219 19.1053 50.4598 18.8243C50.7073 18.5367 50.831 18.1286 50.831 17.6002V10.9176H52.0251C52.6873 10.9176 53.0184 10.63 53.0184 10.0547C53.0184 9.78041 52.9348 9.5697 52.7676 9.42253C52.607 9.26868 52.3796 9.19175 52.0853 9.19175H50.831V8.65995C50.831 7.83048 50.9147 7.29199 51.0819 7.04449C51.2558 6.7903 51.5903 6.6632 52.0853 6.6632H52.8178C53.0987 6.6632 53.3161 6.5662 53.47 6.37221C53.6238 6.17823 53.7007 5.94076 53.7007 5.6598C53.7007 5.37885 53.6205 5.13135 53.4599 4.91729C53.2994 4.69655 53.0853 4.58617 52.8178 4.58617H51.6338C50.4364 4.58617 49.5367 4.88385 48.9346 5.47919C48.3326 6.07454 48.0316 7.02777 48.0316 8.33887V9.19175H47.1084C47.0951 9.19175 47.0884 9.19175 47.0884 9.19175C46.8676 9.19175 46.687 9.23523 46.5465 9.32219C46.4061 9.40246 46.3057 9.50615 46.2455 9.63324C46.192 9.75365 46.1653 9.89413 46.1653 10.0547C46.1653 10.6166 46.4997 10.9042 47.1686 10.9176H48.0316V17.6002C48.0316 18.1286 48.1553 18.5367 48.4028 18.8243C48.657 19.1053 49.0015 19.2458 49.4363 19.2458Z" fill="white"/>
<path d="M56.1624 19.2458C56.6173 19.2458 56.9651 19.112 57.206 18.8444C57.4468 18.5768 57.5672 18.1822 57.5672 17.6604V13.6769C57.5672 13.2421 57.6408 12.8709 57.7879 12.5632C57.9418 12.2488 58.1525 12.0113 58.4201 11.8507C58.6876 11.6835 58.9719 11.5631 59.273 11.4895C59.5807 11.4159 59.9185 11.3792 60.2864 11.3792C60.5941 11.3792 60.8382 11.2621 61.0189 11.028C61.2062 10.7938 61.2998 10.5229 61.2998 10.2152C61.2998 9.90082 61.2028 9.63325 61.0088 9.4125C60.8215 9.19175 60.5506 9.08138 60.1961 9.08138C59.574 9.08138 59.0254 9.29878 58.5505 9.73358C58.0756 10.1684 57.7444 10.6801 57.5571 11.2688L57.5672 10.4661C57.5739 10.0647 57.4367 9.75031 57.1558 9.52287C56.8748 9.28875 56.5437 9.17168 56.1624 9.17168C55.7878 9.17168 55.4634 9.28875 55.1891 9.52287C54.9149 9.75031 54.7777 10.0747 54.7777 10.4962V17.6102C54.7777 18.1387 54.8982 18.5434 55.139 18.8243C55.3865 19.1053 55.7276 19.2458 56.1624 19.2458Z" fill="white"/>
<path d="M64.4137 19.2458C64.8686 19.2458 65.2131 19.1053 65.4472 18.8243C65.688 18.5367 65.8084 18.1253 65.8084 17.5902V10.8273C65.8084 10.2921 65.6813 9.88409 65.4271 9.60314C65.1796 9.3155 64.8284 9.17168 64.3736 9.17168C63.9388 9.17168 63.601 9.3155 63.3601 9.60314C63.126 9.88409 63.0089 10.2921 63.0089 10.8273V17.5902C63.0089 18.132 63.1294 18.5434 63.3702 18.8243C63.611 19.1053 63.9588 19.2458 64.4137 19.2458ZM64.4037 7.15486C64.8786 7.15486 65.2599 7.02108 65.5475 6.7535C65.8419 6.48593 65.989 6.13474 65.989 5.69994C65.989 5.26514 65.8419 4.91395 65.5475 4.64638C65.2599 4.37212 64.882 4.23499 64.4137 4.23499C63.9388 4.23499 63.5541 4.37212 63.2598 4.64638C62.9722 4.91395 62.8283 5.26514 62.8283 5.69994C62.8283 6.13474 62.9722 6.48593 63.2598 6.7535C63.5474 7.02108 63.9287 7.15486 64.4037 7.15486Z" fill="white"/>
<path d="M75.2537 19.5468C76.9863 19.5468 78.4445 19.1354 79.6285 18.3126C80.0499 18.0116 80.2607 17.6403 80.2607 17.1988C80.2607 16.9982 80.2138 16.8075 80.1202 16.6269C80.0265 16.4463 79.8994 16.3025 79.7389 16.1954C79.5784 16.0817 79.4044 16.0249 79.2171 16.0249C79.1502 16.0249 79.08 16.0349 79.0064 16.055C78.9328 16.075 78.8626 16.1018 78.7957 16.1352C77.692 16.7239 76.6384 17.0182 75.635 17.0182C74.3172 17.0182 73.3138 16.5834 72.6248 15.7138C71.9358 14.8442 71.5913 13.5967 71.5913 11.9712C71.5913 8.57968 72.9459 6.88395 75.6551 6.88395C75.8558 6.88395 76.0564 6.89732 76.2571 6.92408C76.4645 6.95084 76.6418 6.98094 76.7889 7.01439C76.9361 7.04114 77.1067 7.08797 77.3007 7.15486C77.4946 7.21507 77.6351 7.26189 77.7221 7.29534C77.809 7.32878 77.9428 7.38564 78.1234 7.46591C78.3107 7.5395 78.4211 7.58298 78.4546 7.59636C78.5348 7.6298 78.6151 7.65656 78.6954 7.67663C78.7823 7.69001 78.8626 7.69669 78.9362 7.69669C79.2706 7.69669 79.5516 7.57294 79.779 7.32544C80.0065 7.07125 80.1202 6.78026 80.1202 6.45249C80.1202 6.30532 80.0934 6.16485 80.0399 6.03106C79.9931 5.89727 79.9128 5.76683 79.7991 5.63974C79.6921 5.50595 79.5549 5.39223 79.3877 5.29858C78.2104 4.66979 76.9127 4.35539 75.4945 4.35539C74.4577 4.35539 73.4944 4.53266 72.6048 4.88719C71.7218 5.24172 70.9559 5.74342 70.307 6.39228C69.6648 7.04114 69.1598 7.85055 68.7919 8.8205C68.424 9.79044 68.24 10.8641 68.24 12.0414C68.24 13.1853 68.4173 14.2321 68.7718 15.182C69.133 16.1319 69.628 16.9246 70.2568 17.5601C70.8856 18.1889 71.6281 18.6772 72.4844 19.025C73.3406 19.3729 74.2637 19.5468 75.2537 19.5468Z" fill="white"/>
<path d="M81.8594 16.4965C81.8594 17.3794 82.1805 18.0785 82.8227 18.5936C83.4716 19.1086 84.2943 19.3662 85.291 19.3662C86.0135 19.3662 86.6389 19.2123 87.1674 18.9046C87.7025 18.5969 88.0838 18.1521 88.3113 17.5701V17.851C88.3113 18.4397 88.532 18.8544 88.9735 19.0953C89.1742 19.2023 89.3849 19.2558 89.6056 19.2558C89.9468 19.2558 90.2445 19.1354 90.4987 18.8946C90.7528 18.6471 90.8799 18.3026 90.8799 17.8611V13.0348C90.8799 12.3123 90.7763 11.6902 90.5689 11.1684C90.3615 10.64 90.0639 10.2219 89.6759 9.9142C89.2946 9.60649 88.8531 9.3824 88.3514 9.24192C87.8564 9.09476 87.2911 9.02117 86.6557 9.02117C85.2576 9.02117 84.0034 9.2854 82.8929 9.81386C82.7257 9.89413 82.6019 10.0045 82.5217 10.145C82.4414 10.2788 82.4013 10.4293 82.4013 10.5965C82.4013 10.8574 82.4882 11.0949 82.6621 11.3089C82.8361 11.523 83.0468 11.63 83.2943 11.63C83.3277 11.63 83.3612 11.63 83.3946 11.63C83.4281 11.6233 83.4615 11.6166 83.495 11.6099C83.5351 11.5966 83.5719 11.5832 83.6053 11.5698C83.9465 11.4293 84.2174 11.3256 84.4181 11.2587C84.6188 11.1852 84.9265 11.1015 85.3412 11.0079C85.7559 10.9142 86.1473 10.8674 86.5152 10.8674C87.6524 10.8674 88.221 11.4427 88.221 12.5933V13.3157C87.4182 13.3157 86.7359 13.3324 86.174 13.3659C85.6121 13.3926 85.077 13.4495 84.5686 13.5364C84.0669 13.6234 83.6555 13.7405 83.3344 13.8876C83.02 14.0348 82.7458 14.2288 82.5116 14.4696C82.2775 14.7037 82.1103 14.988 82.0099 15.3225C81.9096 15.6503 81.8594 16.0416 81.8594 16.4965ZM85.7526 17.7106C85.3111 17.7106 84.9599 17.5835 84.699 17.3293C84.4448 17.0751 84.3177 16.7239 84.3177 16.2757C84.3177 16.0683 84.3412 15.8877 84.388 15.7339C84.4415 15.5733 84.5117 15.4362 84.5987 15.3225C84.6924 15.2088 84.8228 15.1151 84.99 15.0415C85.1573 14.9613 85.3312 14.8977 85.5118 14.8509C85.6991 14.8041 85.9399 14.7673 86.2342 14.7405C86.5352 14.7138 86.8296 14.697 87.1172 14.6904C87.4115 14.6837 87.7761 14.6803 88.2109 14.6803V15.0114C88.2109 15.3994 88.1373 15.7673 87.9902 16.1152C87.8497 16.4563 87.6624 16.744 87.4283 16.9781C87.1941 17.2055 86.9299 17.3861 86.6356 17.5199C86.3479 17.647 86.0536 17.7106 85.7526 17.7106Z" fill="white"/>
<path d="M93.5925 18.2022C94.7163 18.9916 96.0575 19.3862 97.6161 19.3862C98.4054 19.3862 99.1011 19.2725 99.7032 19.0451C100.312 18.811 100.797 18.4497 101.158 17.9614C101.519 17.4731 101.7 16.8811 101.7 16.1854C101.7 15.7506 101.633 15.3693 101.499 15.0415C101.365 14.7138 101.155 14.4328 100.867 14.1987C100.586 13.9579 100.255 13.7572 99.8737 13.5967C99.4991 13.4294 99.0376 13.2756 98.489 13.1351L97.004 12.7638C96.509 12.6434 96.1679 12.513 95.9806 12.3725C95.7933 12.2253 95.6996 12.0046 95.6996 11.7103C95.6996 11.4962 95.7866 11.3189 95.9605 11.1785C96.1411 11.0313 96.3518 10.931 96.5926 10.8775C96.8401 10.8239 97.1077 10.7972 97.3953 10.7972C98.0509 10.7972 98.8469 10.9611 99.7834 11.2888C99.8302 11.3089 99.8637 11.3223 99.8838 11.329C99.9573 11.3557 100.028 11.3758 100.094 11.3892C100.168 11.4026 100.238 11.4093 100.305 11.4093C100.546 11.4093 100.74 11.329 100.887 11.1684C101.034 11.0012 101.108 10.8072 101.108 10.5865C101.108 10.4125 101.058 10.2487 100.957 10.0948C100.864 9.93426 100.717 9.80717 100.516 9.71352C99.459 9.21851 98.372 8.97101 97.2549 8.97101C96.6528 8.97101 96.1043 9.03455 95.6093 9.16165C95.1143 9.28875 94.6862 9.4727 94.325 9.71352C93.9637 9.95433 93.6828 10.2587 93.4821 10.6266C93.2881 10.9878 93.1911 11.3959 93.1911 11.8507C93.1911 12.1317 93.2179 12.3859 93.2714 12.6133C93.3249 12.8408 93.3918 13.0414 93.4721 13.2154C93.559 13.3826 93.6794 13.5398 93.8333 13.687C93.9938 13.8341 94.1544 13.9612 94.3149 14.0682C94.4755 14.1686 94.6862 14.2723 94.9471 14.3793C95.2079 14.4796 95.4521 14.5666 95.6795 14.6402C95.9137 14.7071 96.208 14.7907 96.5625 14.891L98.0576 15.2824C98.4924 15.3961 98.8168 15.5466 99.0309 15.7339C99.2516 15.9212 99.362 16.1352 99.362 16.3761C99.362 16.5968 99.3018 16.7908 99.1814 16.958C99.0677 17.1186 98.9105 17.2423 98.7098 17.3293C98.5091 17.4162 98.2951 17.4798 98.0676 17.5199C97.8469 17.5534 97.6094 17.5701 97.3552 17.5701C97.2147 17.5701 97.0743 17.5667 96.9338 17.5601C96.7933 17.5467 96.6562 17.5266 96.5224 17.4999C96.3953 17.4731 96.2782 17.4497 96.1712 17.4296C96.0709 17.4029 95.9605 17.3661 95.8401 17.3192C95.7197 17.2724 95.6227 17.2356 95.5491 17.2089C95.4822 17.1821 95.3886 17.142 95.2682 17.0885C95.1544 17.0283 95.0775 16.9881 95.0374 16.9681C94.9972 16.948 94.9203 16.9079 94.8066 16.8476C94.6996 16.7808 94.6394 16.744 94.626 16.7373C94.4454 16.6369 94.2648 16.5868 94.0841 16.5868C93.9637 16.5868 93.8467 16.6135 93.733 16.667C93.6192 16.7139 93.5256 16.7808 93.452 16.8677C93.3784 16.9547 93.3182 17.0517 93.2714 17.1587C93.2313 17.2657 93.2112 17.3761 93.2112 17.4898C93.2112 17.6303 93.2413 17.7641 93.3015 17.8912C93.3684 18.0116 93.4654 18.1153 93.5925 18.2022Z" fill="white"/>
<path d="M113.423 12.804C113.423 12.1618 113.326 11.5932 113.132 11.0982C112.938 10.5965 112.67 10.1985 112.329 9.90416C111.988 9.60314 111.603 9.37905 111.175 9.23189C110.747 9.07803 110.282 9.00111 109.781 9.00111C109.025 9.00111 108.372 9.13824 107.824 9.4125C107.275 9.68676 106.844 10.0781 106.53 10.5865V6.36218C106.53 5.84042 106.406 5.43906 106.158 5.15811C105.911 4.87716 105.56 4.73668 105.105 4.73668C104.67 4.73668 104.332 4.87716 104.091 5.15811C103.857 5.43906 103.74 5.84042 103.74 6.36218V17.6102C103.74 18.1387 103.861 18.5434 104.101 18.8243C104.349 19.1053 104.69 19.2458 105.125 19.2458C105.58 19.2458 105.928 19.1053 106.168 18.8243C106.416 18.5434 106.54 18.1387 106.54 17.6102V13.4662C106.54 12.6903 106.767 12.0615 107.222 11.5798C107.677 11.0915 108.219 10.8474 108.847 10.8474C109.369 10.8474 109.794 11.0246 110.122 11.3792C110.456 11.727 110.623 12.2287 110.623 12.8842V17.6102C110.623 18.1387 110.744 18.5434 110.985 18.8243C111.232 19.1053 111.573 19.2458 112.008 19.2458C112.463 19.2458 112.811 19.1053 113.052 18.8243C113.292 18.5434 113.413 18.1387 113.413 17.6102L113.423 12.804Z" fill="white"/>
<path d="M17.1842 5.73217H18.9353C18.9345 5.03577 18.6575 4.36813 18.1651 3.87571C17.6726 3.38328 17.005 3.10628 16.3086 3.10547V4.8566C16.5407 4.85686 16.7633 4.94919 16.9274 5.11334C17.0916 5.27748 17.1839 5.50003 17.1842 5.73217Z" fill="#F7F8FA"/>
<path d="M16.3086 0.49292V2.24405C17.2371 2.2451 18.1273 2.61442 18.7839 3.271C19.4405 3.92757 19.8098 4.81778 19.8109 5.74632H21.562C21.5605 4.3535 21.0065 3.01817 20.0216 2.0333C19.0367 1.04843 17.7014 0.494455 16.3086 0.49292V0.49292Z" fill="#F7F8FA"/>
<path d="M18.9376 11.0006H14.5597C14.0953 11.0006 13.6499 11.1851 13.3215 11.5135C12.9931 11.8419 12.8086 12.2873 12.8086 12.7517V14.5029C12.8086 14.9673 12.9931 15.4127 13.3215 15.7411C13.6499 16.0695 14.0953 16.254 14.5597 16.254H18.9376C19.1698 16.254 19.3925 16.1618 19.5567 15.9976C19.7209 15.8334 19.8131 15.6107 19.8131 15.3784V11.8762C19.8131 11.644 19.7209 11.4213 19.5567 11.2571C19.3925 11.0929 19.1698 11.0006 18.9376 11.0006Z" fill="#F7F8FA"/>
<path d="M11.9312 14.5024V12.7512C11.932 12.0548 12.209 11.3872 12.7014 10.8948C13.1939 10.4024 13.8615 10.1253 14.5579 10.1245H18.0602V9.24897C18.0591 8.32043 17.6898 7.43022 17.0332 6.77365C16.3767 6.11707 15.4864 5.74775 14.5579 5.7467H1.4244C1.19218 5.7467 0.969476 5.83895 0.805276 6.00315C0.641075 6.16735 0.548828 6.39006 0.548828 6.62227L0.548828 20.6313C0.548828 20.8636 0.641075 21.0863 0.805276 21.2505C0.969476 21.4147 1.19218 21.5069 1.4244 21.5069H14.5579C15.4864 21.5059 16.3767 21.1365 17.0332 20.48C17.6898 19.8234 18.0591 18.9332 18.0602 18.0046V17.1291H14.5579C13.8615 17.1283 13.1939 16.8513 12.7014 16.3588C12.209 15.8664 11.932 15.1988 11.9312 14.5024ZM9.3045 11.8757H6.24001C6.12391 11.8757 6.01255 11.9218 5.93045 12.0039C5.84835 12.086 5.80223 12.1973 5.80223 12.3135C5.80223 12.4296 5.84835 12.5409 5.93045 12.623C6.01255 12.7051 6.12391 12.7512 6.24001 12.7512H7.11558C7.65841 12.7507 8.18208 12.9519 8.58493 13.3157C8.98778 13.6795 9.24106 14.1801 9.29562 14.7202C9.35017 15.2603 9.2021 15.8013 8.88015 16.2384C8.5582 16.6754 8.08534 16.9773 7.55336 17.0853V18.0046H5.80223V17.1291H4.0511V15.3779H7.11558C7.23169 15.3779 7.34304 15.3318 7.42514 15.2497C7.50724 15.1676 7.55336 15.0563 7.55336 14.9402C7.55336 14.824 7.50724 14.7127 7.42514 14.6306C7.34304 14.5485 7.23169 14.5024 7.11558 14.5024H6.24001C5.69718 14.5029 5.17351 14.3017 4.77067 13.9379C4.36782 13.5741 4.11453 13.0735 4.05998 12.5334C4.00542 11.9934 4.1535 11.4523 4.47545 11.0152C4.7974 10.5782 5.27026 10.2763 5.80223 10.1683V9.24897H7.55336V10.1245H9.3045V11.8757Z" fill="#F7F8FA"/>
<rect x="2.2832" y="8.45007" width="8.46665" height="11.0168" fill="#F7F8FA"/>
</svg>
