<svg width="538" height="704" viewBox="0 0 538 704" fill="none" xmlns="http://www.w3.org/2000/svg">
<g opacity="0.2">
<path fill-rule="evenodd" clip-rule="evenodd" d="M200.963 3.04284C206.385 4.11292 209.554 9.63436 208.124 14.9732L200.207 44.5175C198.779 49.8479 193.305 52.9613 187.859 52.0708C164.889 48.3146 141.207 52.5746 120.874 64.3138C100.541 76.053 85.0106 94.4323 76.7783 116.203C74.8265 121.365 69.3933 124.549 64.0629 123.12L34.5186 115.204C29.1798 113.773 25.9825 108.269 27.767 103.037C39.6043 68.3386 63.6463 38.9677 95.5917 20.524C127.537 2.08035 164.994 -4.0552 200.963 3.04284ZM151.521 136.058C148.149 140.426 142.796 143.793 137.465 142.365L107.922 134.448C102.583 133.018 99.3565 127.491 101.482 122.388C107.857 107.086 119.109 94.1945 133.624 85.8145C148.138 77.4344 164.928 74.1359 181.368 76.2661C186.85 76.9763 190.023 82.5339 188.593 87.8729L180.677 117.417C179.248 122.747 173.656 125.7 168.187 126.436C164.947 126.872 161.791 127.936 158.904 129.602C156.018 131.268 153.519 133.47 151.521 136.058ZM180.945 311.579L58.7886 278.847C52.309 277.111 45.4051 278.02 39.5957 281.374C33.7862 284.728 29.5472 290.253 27.811 296.732L1.62559 394.457C-0.110614 400.937 0.798278 407.841 4.15236 413.65C7.50644 419.46 13.031 423.699 19.5105 425.435L141.667 458.167C154.626 461.639 168.434 459.821 180.053 453.113C191.672 446.405 200.15 435.356 203.622 422.397L216.715 373.534C220.187 360.575 218.37 346.767 211.661 335.148C204.953 323.53 193.904 315.051 180.945 311.579ZM228.098 428.94L241.191 380.078C246.375 360.64 243.638 339.939 233.579 322.517C223.52 305.095 206.962 292.374 187.536 287.145L99.4702 263.547C94.1355 262.118 90.9697 256.635 92.3991 251.3L96.3573 236.528C103.329 210.626 120.29 188.548 143.52 175.136C166.749 161.724 194.351 158.075 220.268 164.988L586.737 263.183C593.217 264.92 598.741 269.159 602.096 274.968C605.45 280.778 606.359 287.681 604.622 294.161L499.881 685.062C498.145 691.541 493.905 697.066 488.096 700.42C482.287 703.774 475.383 704.683 468.903 702.947L102.434 604.752C76.532 597.78 54.4534 580.819 41.0417 557.589C27.63 534.359 23.9805 506.758 30.8938 480.841L34.852 466.069C36.2814 460.734 41.7647 457.568 47.0994 458.998L135.165 482.595C154.603 487.779 175.304 485.042 192.726 474.983C210.148 464.924 222.869 448.366 228.098 428.94Z" fill="#0E50C4"/>
<path fill-rule="evenodd" clip-rule="evenodd" d="M200.963 3.04284C206.385 4.11292 209.554 9.63436 208.124 14.9732L200.207 44.5175C198.779 49.8479 193.305 52.9613 187.859 52.0708C164.889 48.3146 141.207 52.5746 120.874 64.3138C100.541 76.053 85.0106 94.4323 76.7783 116.203C74.8265 121.365 69.3933 124.549 64.0629 123.12L34.5186 115.204C29.1798 113.773 25.9825 108.269 27.767 103.037C39.6043 68.3386 63.6463 38.9677 95.5917 20.524C127.537 2.08035 164.994 -4.0552 200.963 3.04284ZM151.521 136.058C148.149 140.426 142.796 143.793 137.465 142.365L107.922 134.448C102.583 133.018 99.3565 127.491 101.482 122.388C107.857 107.086 119.109 94.1945 133.624 85.8145C148.138 77.4344 164.928 74.1359 181.368 76.2661C186.85 76.9763 190.023 82.5339 188.593 87.8729L180.677 117.417C179.248 122.747 173.656 125.7 168.187 126.436C164.947 126.872 161.791 127.936 158.904 129.602C156.018 131.268 153.519 133.47 151.521 136.058ZM180.945 311.579L58.7886 278.847C52.309 277.111 45.4051 278.02 39.5957 281.374C33.7862 284.728 29.5472 290.253 27.811 296.732L1.62559 394.457C-0.110614 400.937 0.798278 407.841 4.15236 413.65C7.50644 419.46 13.031 423.699 19.5105 425.435L141.667 458.167C154.626 461.639 168.434 459.821 180.053 453.113C191.672 446.405 200.15 435.356 203.622 422.397L216.715 373.534C220.187 360.575 218.37 346.767 211.661 335.148C204.953 323.53 193.904 315.051 180.945 311.579ZM228.098 428.94L241.191 380.078C246.375 360.64 243.638 339.939 233.579 322.517C223.52 305.095 206.962 292.374 187.536 287.145L99.4702 263.547C94.1355 262.118 90.9697 256.635 92.3991 251.3L96.3573 236.528C103.329 210.626 120.29 188.548 143.52 175.136C166.749 161.724 194.351 158.075 220.268 164.988L586.737 263.183C593.217 264.92 598.741 269.159 602.096 274.968C605.45 280.778 606.359 287.681 604.622 294.161L499.881 685.062C498.145 691.541 493.905 697.066 488.096 700.42C482.287 703.774 475.383 704.683 468.903 702.947L102.434 604.752C76.532 597.78 54.4534 580.819 41.0417 557.589C27.63 534.359 23.9805 506.758 30.8938 480.841L34.852 466.069C36.2814 460.734 41.7647 457.568 47.0994 458.998L135.165 482.595C154.603 487.779 175.304 485.042 192.726 474.983C210.148 464.924 222.869 448.366 228.098 428.94Z" fill="url(#paint0_linear_6898_6670)" fill-opacity="0.3"/>
</g>
<defs>
<linearGradient id="paint0_linear_6898_6670" x1="-9.21267" y1="663.167" x2="700.775" y2="503.99" gradientUnits="userSpaceOnUse">
<stop stop-color="#22C1EE"/>
<stop offset="1" stop-color="#0E50C4"/>
</linearGradient>
</defs>
</svg>
